<?xml version="1.0" encoding="UTF-8" standalone="no"?>
<svg
   width="77"
   zoomAndPan="magnify"
   viewBox="0 0 57.75 66"
   height="88"
   preserveAspectRatio="xMidYMid meet"
   version="1.0"
   id="svg75"
   sodipodi:docname="Horizontal branco.svg"
   inkscape:export-filename="Horizontal branco.png"
   inkscape:export-xdpi="2534.3999"
   inkscape:export-ydpi="2534.3999"
   inkscape:version="1.3.2 (091e20e, 2023-11-25, custom)"
   xmlns:inkscape="http://www.inkscape.org/namespaces/inkscape"
   xmlns:sodipodi="http://sodipodi.sourceforge.net/DTD/sodipodi-0.dtd"
   xmlns="http://www.w3.org/2000/svg"
   xmlns:svg="http://www.w3.org/2000/svg">
  <sodipodi:namedview
     id="namedview75"
     pagecolor="#ffffff"
     bordercolor="#000000"
     borderopacity="0.25"
     inkscape:showpageshadow="2"
     inkscape:pageopacity="0.0"
     inkscape:pagecheckerboard="0"
     inkscape:deskcolor="#d1d1d1"
     inkscape:zoom="8.9318182"
     inkscape:cx="38.513995"
     inkscape:cy="44"
     inkscape:window-width="1920"
     inkscape:window-height="995"
     inkscape:window-x="-9"
     inkscape:window-y="-9"
     inkscape:window-maximized="1"
     inkscape:current-layer="svg75" />
  <defs
     id="defs7">
    <g
       id="g1" />
    <clipPath
       id="415c1ca44d">
      <path
         d="M 0 0.140625 L 57.5 0.140625 L 57.5 65.855469 L 0 65.855469 Z M 0 0.140625 "
         clip-rule="nonzero"
         id="path1" />
    </clipPath>
    <clipPath
       id="2f7fd241b0">
      <path
         d="M 5 28 L 16 28 L 16 41 L 5 41 Z M 5 28 "
         clip-rule="nonzero"
         id="path2" />
    </clipPath>
    <clipPath
       id="0846172a54">
      <path
         d="M 12.203125 28.265625 L 15.117188 30.027344 L 8.53125 40.9375 L 5.617188 39.179688 Z M 12.203125 28.265625 "
         clip-rule="nonzero"
         id="path3" />
    </clipPath>
    <clipPath
       id="e1396c1d16">
      <path
         d="M 5 30 L 13 30 L 13 37 L 5 37 Z M 5 30 "
         clip-rule="nonzero"
         id="path4" />
    </clipPath>
    <clipPath
       id="487455a182">
      <path
         d="M 8.363281 30.003906 L 12.335938 32.402344 L 9.894531 36.449219 L 5.921875 34.050781 Z M 8.363281 30.003906 "
         clip-rule="nonzero"
         id="path5" />
    </clipPath>
    <clipPath
       id="d32f25d596">
      <path
         d="M 10 30 L 17 30 L 17 37 L 10 37 Z M 10 30 "
         clip-rule="nonzero"
         id="path6" />
    </clipPath>
    <clipPath
       id="9454b6c34b">
      <path
         d="M 12.746094 30.4375 L 16.71875 32.832031 L 14.535156 36.445312 L 10.566406 34.050781 Z M 12.746094 30.4375 "
         clip-rule="nonzero"
         id="path7" />
    </clipPath>
  </defs>
  <g
     clip-path="url(#415c1ca44d)"
     id="g9">
    <path
       fill="#ffffff"
       d="M 0 0.140625 L 57.5 0.140625 L 57.5 65.859375 L 0 65.859375 Z M 0 0.140625 "
       fill-opacity="1"
       fill-rule="nonzero"
       id="path8" />
    <path
       fill="#ffffff"
       d="M 0 0.140625 L 57.5 0.140625 L 57.5 65.859375 L 0 65.859375 Z M 0 0.140625 "
       fill-opacity="1"
       fill-rule="nonzero"
       id="path9" />
  </g>
  <g
     fill="#000080"
     fill-opacity="1"
     id="g12">
    <g
       transform="translate(1.392726, 34.37768)"
       id="g11">
      <g
         id="g10">
        <path
           d="M 13.109375 -0.234375 C 13.148438 -0.234375 13.171875 -0.191406 13.171875 -0.109375 C 13.171875 -0.0351562 13.148438 0 13.109375 0 L 10.859375 0 C 10.535156 0 9.910156 -0.535156 8.984375 -1.609375 C 8.054688 -2.691406 6.957031 -4.175781 5.6875 -6.0625 C 5.226562 -5.976562 4.816406 -5.9375 4.453125 -5.9375 C 4.398438 -5.9375 4.125 -5.953125 3.625 -5.984375 L 3.625 -1.578125 C 3.625 -1.171875 3.664062 -0.875 3.75 -0.6875 C 3.832031 -0.507812 3.988281 -0.390625 4.21875 -0.328125 C 4.457031 -0.265625 4.835938 -0.234375 5.359375 -0.234375 C 5.390625 -0.234375 5.40625 -0.191406 5.40625 -0.109375 C 5.40625 -0.0351562 5.390625 0 5.359375 0 C 4.960938 0 4.648438 -0.00390625 4.421875 -0.015625 L 3.109375 -0.03125 L 1.828125 -0.015625 C 1.585938 -0.00390625 1.265625 0 0.859375 0 C 0.828125 0 0.8125 -0.0351562 0.8125 -0.109375 C 0.8125 -0.191406 0.828125 -0.234375 0.859375 -0.234375 C 1.367188 -0.234375 1.742188 -0.265625 1.984375 -0.328125 C 2.222656 -0.390625 2.390625 -0.515625 2.484375 -0.703125 C 2.578125 -0.890625 2.625 -1.179688 2.625 -1.578125 L 2.625 -10.546875 C 2.625 -10.929688 2.578125 -11.210938 2.484375 -11.390625 C 2.398438 -11.578125 2.238281 -11.707031 2 -11.78125 C 1.757812 -11.851562 1.390625 -11.890625 0.890625 -11.890625 C 0.847656 -11.890625 0.828125 -11.925781 0.828125 -12 C 0.828125 -12.082031 0.847656 -12.125 0.890625 -12.125 L 1.828125 -12.09375 C 2.335938 -12.070312 2.765625 -12.0625 3.109375 -12.0625 C 3.390625 -12.0625 3.65625 -12.066406 3.90625 -12.078125 C 4.15625 -12.085938 4.375 -12.101562 4.5625 -12.125 C 5.019531 -12.15625 5.429688 -12.171875 5.796875 -12.171875 C 6.765625 -12.171875 7.515625 -11.9375 8.046875 -11.46875 C 8.585938 -11 8.859375 -10.375 8.859375 -9.59375 C 8.859375 -8.914062 8.648438 -8.296875 8.234375 -7.734375 C 7.828125 -7.171875 7.28125 -6.726562 6.59375 -6.40625 C 7.707031 -4.820312 8.640625 -3.585938 9.390625 -2.703125 C 10.140625 -1.828125 10.800781 -1.195312 11.375 -0.8125 C 11.957031 -0.425781 12.535156 -0.234375 13.109375 -0.234375 Z M 3.625 -6.4375 C 3.988281 -6.394531 4.378906 -6.375 4.796875 -6.375 C 5.867188 -6.375 6.632812 -6.597656 7.09375 -7.046875 C 7.550781 -7.492188 7.78125 -8.171875 7.78125 -9.078125 C 7.78125 -10.066406 7.535156 -10.785156 7.046875 -11.234375 C 6.566406 -11.691406 5.863281 -11.921875 4.9375 -11.921875 C 4.445312 -11.921875 4.101562 -11.828125 3.90625 -11.640625 C 3.71875 -11.460938 3.625 -11.085938 3.625 -10.515625 Z M 3.625 -6.4375 "
           id="path10" />
      </g>
    </g>
  </g>
  <g
     fill="#000080"
     fill-opacity="1"
     id="g15">
    <g
       transform="translate(8.03902, 43.848848)"
       id="g14">
      <g
         id="g13">
        <path
           d="M 13.546875 -12.125 C 13.585938 -12.125 13.609375 -12.082031 13.609375 -12 C 13.609375 -11.925781 13.585938 -11.890625 13.546875 -11.890625 C 12.992188 -11.890625 12.601562 -11.753906 12.375 -11.484375 C 12.15625 -11.210938 12.046875 -10.742188 12.046875 -10.078125 L 12.046875 0.21875 C 12.046875 0.238281 12.007812 0.253906 11.9375 0.265625 C 11.875 0.285156 11.832031 0.28125 11.8125 0.25 L 3.046875 -10.53125 L 2.71875 -10.890625 L 2.71875 -2.015625 C 2.71875 -1.359375 2.828125 -0.894531 3.046875 -0.625 C 3.265625 -0.363281 3.644531 -0.234375 4.1875 -0.234375 C 4.226562 -0.234375 4.25 -0.191406 4.25 -0.109375 C 4.25 -0.0351562 4.226562 0 4.1875 0 C 3.875 0 3.632812 -0.00390625 3.46875 -0.015625 L 2.546875 -0.03125 L 1.59375 -0.015625 C 1.425781 -0.00390625 1.171875 0 0.828125 0 C 0.804688 0 0.796875 -0.0351562 0.796875 -0.109375 C 0.796875 -0.191406 0.804688 -0.234375 0.828125 -0.234375 C 1.390625 -0.234375 1.769531 -0.363281 1.96875 -0.625 C 2.175781 -0.882812 2.28125 -1.347656 2.28125 -2.015625 L 2.28125 -11.3125 C 1.832031 -11.695312 1.367188 -11.890625 0.890625 -11.890625 C 0.847656 -11.890625 0.828125 -11.925781 0.828125 -12 C 0.828125 -12.082031 0.847656 -12.125 0.890625 -12.125 L 1.59375 -12.09375 C 1.726562 -12.082031 1.925781 -12.078125 2.1875 -12.078125 C 2.40625 -12.078125 2.585938 -12.082031 2.734375 -12.09375 C 2.878906 -12.113281 2.988281 -12.125 3.0625 -12.125 C 3.15625 -12.125 3.226562 -12.097656 3.28125 -12.046875 C 3.34375 -12.003906 3.410156 -11.910156 3.484375 -11.765625 C 3.628906 -11.535156 3.785156 -11.316406 3.953125 -11.109375 L 11.609375 -1.59375 L 11.609375 -10.078125 C 11.609375 -10.742188 11.503906 -11.210938 11.296875 -11.484375 C 11.097656 -11.753906 10.726562 -11.890625 10.1875 -11.890625 C 10.15625 -11.890625 10.140625 -11.925781 10.140625 -12 C 10.140625 -12.082031 10.15625 -12.125 10.1875 -12.125 L 10.921875 -12.09375 C 11.304688 -12.070312 11.613281 -12.0625 11.84375 -12.0625 C 12.0625 -12.0625 12.378906 -12.070312 12.796875 -12.09375 Z M 13.546875 -12.125 "
           id="path12" />
      </g>
    </g>
  </g>
  <g
     clip-path="url(#2f7fd241b0)"
     id="g17">
    <g
       clip-path="url(#0846172a54)"
       id="g16">
      <path
         fill="#ffffff"
         d="M 12.203125 28.265625 L 15.117188 30.027344 L 8.527344 40.945312 L 5.613281 39.183594 Z M 12.203125 28.265625 "
         fill-opacity="1"
         fill-rule="nonzero"
         id="path15" />
    </g>
  </g>
  <g
     clip-path="url(#e1396c1d16)"
     id="g19">
    <g
       clip-path="url(#487455a182)"
       id="g18">
      <path
         fill="#ffffff"
         d="M 8.363281 30.003906 L 12.335938 32.402344 L 9.890625 36.449219 L 5.921875 34.054688 Z M 8.363281 30.003906 "
         fill-opacity="1"
         fill-rule="nonzero"
         id="path17" />
    </g>
  </g>
  <g
     clip-path="url(#d32f25d596)"
     id="g21">
    <g
       clip-path="url(#9454b6c34b)"
       id="g20">
      <path
         fill="#ffffff"
         d="M 12.746094 30.4375 L 16.714844 32.832031 L 14.53125 36.445312 L 10.566406 34.050781 Z M 12.746094 30.4375 "
         fill-opacity="1"
         fill-rule="nonzero"
         id="path19" />
    </g>
  </g>
  <path
     stroke-linecap="butt"
     transform="matrix(0.429195, -0.611108, 0.611108, 0.429195, 4.253803, 42.271669)"
     fill="none"
     stroke-linejoin="miter"
     d="M 0.0014854 0.497708 L 28.332097 0.49901 "
     stroke="#000080"
     stroke-width="1"
     stroke-opacity="1"
     stroke-miterlimit="4"
     id="path21"
     style="stroke-width:1.00432898;stroke-dasharray:none" />
  <g
     fill="#000080"
     fill-opacity="1"
     id="g24">
    <g
       transform="translate(26.40607, 31.771044)"
       id="g23">
      <g
         id="g22">
        <path
           d="M 2.453125 0 L 1.78125 -0.953125 C 1.6875 -0.929688 1.597656 -0.921875 1.515625 -0.921875 L 0.703125 -0.921875 L 0.703125 0 L 0.5 0 L 0.5 -2.828125 L 1.515625 -2.828125 C 1.867188 -2.828125 2.144531 -2.742188 2.34375 -2.578125 C 2.550781 -2.410156 2.65625 -2.175781 2.65625 -1.875 C 2.65625 -1.65625 2.597656 -1.46875 2.484375 -1.3125 C 2.367188 -1.15625 2.203125 -1.046875 1.984375 -0.984375 L 2.6875 0 Z M 1.515625 -1.109375 C 1.816406 -1.109375 2.046875 -1.175781 2.203125 -1.3125 C 2.359375 -1.445312 2.4375 -1.632812 2.4375 -1.875 C 2.4375 -2.125 2.359375 -2.3125 2.203125 -2.4375 C 2.046875 -2.570312 1.816406 -2.640625 1.515625 -2.640625 L 0.703125 -2.640625 L 0.703125 -1.109375 Z M 1.515625 -1.109375 "
           id="path22" />
      </g>
    </g>
  </g>
  <g
     fill="#000080"
     fill-opacity="1"
     id="g27">
    <g
       transform="translate(30.940419, 31.771044)"
       id="g26">
      <g
         id="g25" />
    </g>
  </g>
  <g
     fill="#000080"
     fill-opacity="1"
     id="g30">
    <g
       transform="translate(33.600294, 31.771044)"
       id="g29">
      <g
         id="g28">
        <path
           d="M 2.796875 -2.828125 L 2.796875 0 L 2.625 0 L 0.703125 -2.453125 L 0.703125 0 L 0.5 0 L 0.5 -2.828125 L 0.671875 -2.828125 L 2.59375 -0.375 L 2.59375 -2.828125 Z M 2.796875 -2.828125 "
           id="path27" />
      </g>
    </g>
  </g>
  <g
     fill="#000080"
     fill-opacity="1"
     id="g33">
    <g
       transform="translate(38.515206, 31.771044)"
       id="g32">
      <g
         id="g31">
        <path
           d="M 2.25 -0.796875 L 0.609375 -0.796875 L 0.25 0 L 0.015625 0 L 1.328125 -2.828125 L 1.53125 -2.828125 L 2.828125 0 L 2.609375 0 Z M 2.171875 -0.96875 L 1.421875 -2.609375 L 0.6875 -0.96875 Z M 2.171875 -0.96875 "
           id="path30" />
      </g>
    </g>
  </g>
  <g
     fill="#000080"
     fill-opacity="1"
     id="g36">
    <g
       transform="translate(42.988826, 31.771044)"
       id="g35">
      <g
         id="g34">
        <path
           d="M 2.75 -2.828125 L 1.5 0 L 1.28125 0 L 0.03125 -2.828125 L 0.25 -2.828125 L 1.390625 -0.265625 L 2.546875 -2.828125 Z M 2.75 -2.828125 "
           id="path33" />
      </g>
    </g>
  </g>
  <g
     fill="#000080"
     fill-opacity="1"
     id="g39">
    <g
       transform="translate(47.389576, 31.771044)"
       id="g38">
      <g
         id="g37">
        <path
           d="M 2.453125 -0.1875 L 2.453125 0 L 0.5 0 L 0.5 -2.828125 L 2.390625 -2.828125 L 2.390625 -2.640625 L 0.703125 -2.640625 L 0.703125 -1.53125 L 2.203125 -1.53125 L 2.203125 -1.34375 L 0.703125 -1.34375 L 0.703125 -0.1875 Z M 2.453125 -0.1875 "
           id="path36" />
      </g>
    </g>
  </g>
  <g
     fill="#000080"
     fill-opacity="1"
     id="g42">
    <g
       transform="translate(51.717453, 31.771044)"
       id="g41">
      <g
         id="g40">
        <path
           d="M 1.234375 0.015625 C 1.023438 0.015625 0.828125 -0.015625 0.640625 -0.078125 C 0.453125 -0.148438 0.304688 -0.242188 0.203125 -0.359375 L 0.296875 -0.515625 C 0.398438 -0.410156 0.535156 -0.320312 0.703125 -0.25 C 0.867188 -0.1875 1.046875 -0.15625 1.234375 -0.15625 C 1.503906 -0.15625 1.707031 -0.207031 1.84375 -0.3125 C 1.976562 -0.414062 2.046875 -0.550781 2.046875 -0.71875 C 2.046875 -0.84375 2.007812 -0.941406 1.9375 -1.015625 C 1.863281 -1.097656 1.773438 -1.15625 1.671875 -1.1875 C 1.566406 -1.226562 1.421875 -1.269531 1.234375 -1.3125 C 1.023438 -1.363281 0.859375 -1.414062 0.734375 -1.46875 C 0.609375 -1.519531 0.5 -1.59375 0.40625 -1.6875 C 0.320312 -1.789062 0.28125 -1.925781 0.28125 -2.09375 C 0.28125 -2.238281 0.316406 -2.367188 0.390625 -2.484375 C 0.460938 -2.597656 0.570312 -2.6875 0.71875 -2.75 C 0.875 -2.820312 1.0625 -2.859375 1.28125 -2.859375 C 1.4375 -2.859375 1.585938 -2.832031 1.734375 -2.78125 C 1.890625 -2.738281 2.023438 -2.675781 2.140625 -2.59375 L 2.0625 -2.4375 C 1.945312 -2.507812 1.820312 -2.566406 1.6875 -2.609375 C 1.550781 -2.648438 1.414062 -2.671875 1.28125 -2.671875 C 1.019531 -2.671875 0.820312 -2.617188 0.6875 -2.515625 C 0.550781 -2.410156 0.484375 -2.273438 0.484375 -2.109375 C 0.484375 -1.984375 0.519531 -1.878906 0.59375 -1.796875 C 0.664062 -1.722656 0.753906 -1.664062 0.859375 -1.625 C 0.972656 -1.582031 1.125 -1.539062 1.3125 -1.5 C 1.519531 -1.445312 1.6875 -1.394531 1.8125 -1.34375 C 1.9375 -1.300781 2.039062 -1.226562 2.125 -1.125 C 2.21875 -1.03125 2.265625 -0.898438 2.265625 -0.734375 C 2.265625 -0.585938 2.222656 -0.457031 2.140625 -0.34375 C 2.066406 -0.238281 1.953125 -0.148438 1.796875 -0.078125 C 1.648438 -0.015625 1.460938 0.015625 1.234375 0.015625 Z M 1.234375 0.015625 "
           id="path39" />
      </g>
    </g>
  </g>
  <g
     fill="#000080"
     fill-opacity="1"
     id="g45">
    <g
       transform="translate(26.903309, 36.26331)"
       id="g44">
      <g
         id="g43">
        <path
           d="M 1.171875 0.046875 C 0.828125 0.046875 0.578125 -0.0390625 0.421875 -0.21875 C 0.265625 -0.394531 0.1875 -0.613281 0.1875 -0.875 C 0.1875 -0.957031 0.195312 -1.046875 0.21875 -1.140625 C 0.257812 -1.378906 0.347656 -1.585938 0.484375 -1.765625 C 0.628906 -1.941406 0.796875 -2.078125 0.984375 -2.171875 C 1.179688 -2.265625 1.382812 -2.3125 1.59375 -2.3125 C 1.6875 -2.3125 1.785156 -2.300781 1.890625 -2.28125 C 1.992188 -2.257812 2.070312 -2.234375 2.125 -2.203125 C 2.144531 -2.203125 2.15625 -2.195312 2.15625 -2.1875 C 2.15625 -2.175781 2.15625 -2.15625 2.15625 -2.125 L 2.09375 -1.640625 C 2.09375 -1.628906 2.085938 -1.625 2.078125 -1.625 C 2.066406 -1.625 2.0625 -1.628906 2.0625 -1.640625 C 2.019531 -1.816406 1.941406 -1.957031 1.828125 -2.0625 C 1.722656 -2.164062 1.59375 -2.21875 1.4375 -2.21875 C 1.226562 -2.21875 1.050781 -2.128906 0.90625 -1.953125 C 0.757812 -1.785156 0.664062 -1.554688 0.625 -1.265625 C 0.613281 -1.160156 0.609375 -1.0625 0.609375 -0.96875 C 0.609375 -0.789062 0.628906 -0.628906 0.671875 -0.484375 C 0.722656 -0.335938 0.789062 -0.222656 0.875 -0.140625 C 0.96875 -0.0664062 1.070312 -0.03125 1.1875 -0.03125 C 1.3125 -0.03125 1.4375 -0.0703125 1.5625 -0.15625 C 1.6875 -0.25 1.816406 -0.390625 1.953125 -0.578125 C 1.960938 -0.585938 1.96875 -0.59375 1.96875 -0.59375 C 1.976562 -0.59375 1.984375 -0.585938 1.984375 -0.578125 C 1.992188 -0.578125 2 -0.578125 2 -0.578125 L 1.90625 -0.15625 C 1.894531 -0.125 1.882812 -0.101562 1.875 -0.09375 C 1.875 -0.0820312 1.859375 -0.0703125 1.828125 -0.0625 C 1.609375 0.0078125 1.390625 0.046875 1.171875 0.046875 Z M 1.171875 0.046875 "
           id="path42" />
      </g>
    </g>
  </g>
  <g
     fill="#000080"
     fill-opacity="1"
     id="g48">
    <g
       transform="translate(30.135722, 36.26331)"
       id="g47">
      <g
         id="g46">
        <path
           d="M 0.578125 0.046875 C 0.410156 0.046875 0.285156 -0.00390625 0.203125 -0.109375 C 0.117188 -0.210938 0.078125 -0.34375 0.078125 -0.5 C 0.078125 -0.570312 0.0859375 -0.640625 0.109375 -0.703125 C 0.128906 -0.847656 0.175781 -0.976562 0.25 -1.09375 C 0.332031 -1.207031 0.429688 -1.296875 0.546875 -1.359375 C 0.660156 -1.421875 0.78125 -1.453125 0.90625 -1.453125 C 1.070312 -1.453125 1.195312 -1.398438 1.28125 -1.296875 C 1.363281 -1.203125 1.40625 -1.070312 1.40625 -0.90625 C 1.40625 -0.84375 1.398438 -0.773438 1.390625 -0.703125 C 1.359375 -0.546875 1.300781 -0.410156 1.21875 -0.296875 C 1.132812 -0.179688 1.035156 -0.09375 0.921875 -0.03125 C 0.804688 0.0195312 0.691406 0.046875 0.578125 0.046875 Z M 0.703125 -0.046875 C 0.773438 -0.046875 0.835938 -0.0859375 0.890625 -0.171875 C 0.953125 -0.265625 1 -0.390625 1.03125 -0.546875 C 1.039062 -0.640625 1.046875 -0.734375 1.046875 -0.828125 C 1.046875 -0.984375 1.019531 -1.109375 0.96875 -1.203125 C 0.925781 -1.304688 0.863281 -1.359375 0.78125 -1.359375 C 0.707031 -1.359375 0.640625 -1.316406 0.578125 -1.234375 C 0.523438 -1.148438 0.488281 -1.023438 0.46875 -0.859375 C 0.445312 -0.765625 0.4375 -0.671875 0.4375 -0.578125 C 0.4375 -0.410156 0.457031 -0.28125 0.5 -0.1875 C 0.550781 -0.09375 0.617188 -0.046875 0.703125 -0.046875 Z M 0.703125 -0.046875 "
           id="path45" />
      </g>
    </g>
  </g>
  <g
     fill="#000080"
     fill-opacity="1"
     id="g51">
    <g
       transform="translate(32.712918, 36.26331)"
       id="g50">
      <g
         id="g49">
        <path
           d="M 1.625 -0.28125 C 1.625 -0.28125 1.628906 -0.28125 1.640625 -0.28125 C 1.640625 -0.28125 1.640625 -0.273438 1.640625 -0.265625 C 1.648438 -0.265625 1.65625 -0.257812 1.65625 -0.25 C 1.570312 -0.15625 1.5 -0.0820312 1.4375 -0.03125 C 1.375 0.0078125 1.304688 0.03125 1.234375 0.03125 C 1.117188 0.03125 1.0625 -0.0351562 1.0625 -0.171875 C 1.0625 -0.203125 1.066406 -0.253906 1.078125 -0.328125 L 1.1875 -0.90625 C 1.195312 -0.96875 1.203125 -1.019531 1.203125 -1.0625 C 1.203125 -1.1875 1.160156 -1.25 1.078125 -1.25 C 1.015625 -1.25 0.945312 -1.203125 0.875 -1.109375 C 0.800781 -1.023438 0.734375 -0.894531 0.671875 -0.71875 C 0.609375 -0.550781 0.550781 -0.347656 0.5 -0.109375 L 0.5 -0.046875 C 0.488281 0.00390625 0.421875 0.03125 0.296875 0.03125 C 0.210938 0.03125 0.171875 0.0195312 0.171875 0 L 0.1875 -0.078125 C 0.207031 -0.191406 0.21875 -0.253906 0.21875 -0.265625 L 0.375 -1.078125 C 0.375 -1.097656 0.375 -1.125 0.375 -1.15625 C 0.375 -1.226562 0.359375 -1.265625 0.328125 -1.265625 C 0.273438 -1.265625 0.203125 -1.210938 0.109375 -1.109375 C 0.109375 -1.109375 0.101562 -1.109375 0.09375 -1.109375 C 0.09375 -1.109375 0.0859375 -1.113281 0.078125 -1.125 C 0.078125 -1.132812 0.078125 -1.140625 0.078125 -1.140625 C 0.171875 -1.242188 0.25 -1.316406 0.3125 -1.359375 C 0.382812 -1.410156 0.457031 -1.4375 0.53125 -1.4375 C 0.644531 -1.4375 0.703125 -1.375 0.703125 -1.25 C 0.703125 -1.207031 0.695312 -1.164062 0.6875 -1.125 L 0.625 -0.796875 C 0.707031 -1.003906 0.800781 -1.164062 0.90625 -1.28125 C 1.019531 -1.394531 1.140625 -1.453125 1.265625 -1.453125 C 1.429688 -1.453125 1.515625 -1.351562 1.515625 -1.15625 C 1.515625 -1.101562 1.507812 -1.039062 1.5 -0.96875 L 1.390625 -0.328125 C 1.378906 -0.285156 1.375 -0.253906 1.375 -0.234375 C 1.375 -0.179688 1.394531 -0.15625 1.4375 -0.15625 C 1.457031 -0.15625 1.484375 -0.164062 1.515625 -0.1875 C 1.546875 -0.207031 1.582031 -0.238281 1.625 -0.28125 Z M 1.625 -0.28125 "
           id="path48" />
      </g>
    </g>
  </g>
  <g
     fill="#000080"
     fill-opacity="1"
     id="g54">
    <g
       transform="translate(35.534, 36.26331)"
       id="g53">
      <g
         id="g52">
        <path
           d="M 0.390625 0.046875 C 0.285156 0.046875 0.195312 0.0234375 0.125 -0.015625 C 0.0507812 -0.0664062 0.015625 -0.128906 0.015625 -0.203125 C 0.015625 -0.253906 0.03125 -0.296875 0.0625 -0.328125 C 0.09375 -0.359375 0.132812 -0.375 0.1875 -0.375 C 0.226562 -0.375 0.257812 -0.363281 0.28125 -0.34375 C 0.300781 -0.320312 0.328125 -0.285156 0.359375 -0.234375 C 0.390625 -0.179688 0.421875 -0.140625 0.453125 -0.109375 C 0.484375 -0.0859375 0.519531 -0.078125 0.5625 -0.078125 C 0.601562 -0.078125 0.632812 -0.0859375 0.65625 -0.109375 C 0.675781 -0.140625 0.691406 -0.179688 0.703125 -0.234375 C 0.703125 -0.242188 0.703125 -0.253906 0.703125 -0.265625 C 0.703125 -0.335938 0.679688 -0.398438 0.640625 -0.453125 C 0.597656 -0.503906 0.535156 -0.566406 0.453125 -0.640625 C 0.367188 -0.710938 0.300781 -0.773438 0.25 -0.828125 C 0.207031 -0.878906 0.1875 -0.941406 0.1875 -1.015625 C 0.1875 -1.023438 0.191406 -1.046875 0.203125 -1.078125 C 0.210938 -1.140625 0.242188 -1.195312 0.296875 -1.25 C 0.347656 -1.300781 0.410156 -1.34375 0.484375 -1.375 C 0.566406 -1.414062 0.65625 -1.4375 0.75 -1.4375 C 0.863281 -1.4375 0.953125 -1.414062 1.015625 -1.375 C 1.078125 -1.34375 1.101562 -1.289062 1.09375 -1.21875 C 1.09375 -1.175781 1.070312 -1.140625 1.03125 -1.109375 C 1 -1.085938 0.96875 -1.078125 0.9375 -1.078125 C 0.882812 -1.078125 0.84375 -1.085938 0.8125 -1.109375 C 0.789062 -1.128906 0.769531 -1.160156 0.75 -1.203125 C 0.726562 -1.253906 0.707031 -1.289062 0.6875 -1.3125 C 0.664062 -1.332031 0.632812 -1.34375 0.59375 -1.34375 C 0.550781 -1.34375 0.519531 -1.328125 0.5 -1.296875 C 0.476562 -1.273438 0.460938 -1.253906 0.453125 -1.234375 C 0.453125 -1.222656 0.453125 -1.207031 0.453125 -1.1875 C 0.453125 -1.125 0.472656 -1.066406 0.515625 -1.015625 C 0.554688 -0.960938 0.617188 -0.90625 0.703125 -0.84375 C 0.796875 -0.769531 0.863281 -0.703125 0.90625 -0.640625 C 0.945312 -0.585938 0.96875 -0.523438 0.96875 -0.453125 C 0.96875 -0.441406 0.96875 -0.421875 0.96875 -0.390625 C 0.957031 -0.328125 0.925781 -0.257812 0.875 -0.1875 C 0.820312 -0.125 0.753906 -0.0664062 0.671875 -0.015625 C 0.585938 0.0234375 0.492188 0.046875 0.390625 0.046875 Z M 0.390625 0.046875 "
           id="path51" />
      </g>
    </g>
  </g>
  <g
     fill="#000080"
     fill-opacity="1"
     id="g57">
    <g
       transform="translate(37.776302, 36.26331)"
       id="g56">
      <g
         id="g55">
        <path
           d="M 1.625 -0.296875 C 1.625 -0.296875 1.628906 -0.296875 1.640625 -0.296875 C 1.640625 -0.296875 1.640625 -0.289062 1.640625 -0.28125 C 1.648438 -0.269531 1.65625 -0.265625 1.65625 -0.265625 C 1.5625 -0.160156 1.476562 -0.0820312 1.40625 -0.03125 C 1.34375 0.0078125 1.273438 0.03125 1.203125 0.03125 C 1.085938 0.03125 1.03125 -0.03125 1.03125 -0.15625 C 1.03125 -0.195312 1.035156 -0.238281 1.046875 -0.28125 L 1.109375 -0.609375 C 1.023438 -0.398438 0.925781 -0.238281 0.8125 -0.125 C 0.695312 -0.0078125 0.582031 0.046875 0.46875 0.046875 C 0.300781 0.046875 0.21875 -0.0507812 0.21875 -0.25 C 0.21875 -0.3125 0.222656 -0.375 0.234375 -0.4375 L 0.359375 -1.078125 C 0.367188 -1.117188 0.375 -1.148438 0.375 -1.171875 C 0.375 -1.222656 0.351562 -1.25 0.3125 -1.25 C 0.28125 -1.25 0.25 -1.238281 0.21875 -1.21875 C 0.195312 -1.195312 0.164062 -1.164062 0.125 -1.125 C 0.113281 -1.125 0.109375 -1.125 0.109375 -1.125 C 0.0976562 -1.125 0.0859375 -1.125 0.078125 -1.125 C 0.078125 -1.132812 0.0820312 -1.144531 0.09375 -1.15625 C 0.175781 -1.25 0.25 -1.316406 0.3125 -1.359375 C 0.375 -1.410156 0.4375 -1.4375 0.5 -1.4375 C 0.625 -1.4375 0.6875 -1.367188 0.6875 -1.234375 C 0.6875 -1.191406 0.675781 -1.140625 0.65625 -1.078125 L 0.546875 -0.5 C 0.535156 -0.445312 0.53125 -0.394531 0.53125 -0.34375 C 0.53125 -0.21875 0.566406 -0.15625 0.640625 -0.15625 C 0.710938 -0.15625 0.785156 -0.195312 0.859375 -0.28125 C 0.929688 -0.375 1 -0.503906 1.0625 -0.671875 C 1.125 -0.847656 1.179688 -1.054688 1.234375 -1.296875 L 1.234375 -1.359375 C 1.242188 -1.410156 1.3125 -1.4375 1.4375 -1.4375 C 1.476562 -1.4375 1.507812 -1.429688 1.53125 -1.421875 C 1.550781 -1.421875 1.5625 -1.414062 1.5625 -1.40625 L 1.546875 -1.328125 C 1.523438 -1.210938 1.507812 -1.148438 1.5 -1.140625 L 1.359375 -0.328125 C 1.347656 -0.304688 1.34375 -0.28125 1.34375 -0.25 C 1.34375 -0.175781 1.363281 -0.140625 1.40625 -0.140625 C 1.457031 -0.140625 1.53125 -0.191406 1.625 -0.296875 Z M 1.625 -0.296875 "
           id="path54" />
      </g>
    </g>
  </g>
  <g
     fill="#000080"
     fill-opacity="1"
     id="g60">
    <g
       transform="translate(40.601022, 36.26331)"
       id="g59">
      <g
         id="g58">
        <path
           d="M 0.34375 0.03125 C 0.226562 0.03125 0.171875 -0.0351562 0.171875 -0.171875 C 0.171875 -0.222656 0.175781 -0.273438 0.1875 -0.328125 L 0.515625 -2.140625 C 0.523438 -2.191406 0.53125 -2.234375 0.53125 -2.265625 C 0.53125 -2.335938 0.503906 -2.375 0.453125 -2.375 C 0.429688 -2.375 0.382812 -2.351562 0.3125 -2.3125 L 0.296875 -2.3125 C 0.285156 -2.3125 0.28125 -2.316406 0.28125 -2.328125 C 0.28125 -2.347656 0.285156 -2.359375 0.296875 -2.359375 L 0.859375 -2.640625 C 0.867188 -2.640625 0.878906 -2.632812 0.890625 -2.625 C 0.898438 -2.625 0.90625 -2.617188 0.90625 -2.609375 L 0.484375 -0.328125 C 0.484375 -0.285156 0.484375 -0.253906 0.484375 -0.234375 C 0.484375 -0.179688 0.5 -0.15625 0.53125 -0.15625 C 0.5625 -0.15625 0.585938 -0.164062 0.609375 -0.1875 C 0.640625 -0.207031 0.679688 -0.238281 0.734375 -0.28125 C 0.734375 -0.28125 0.738281 -0.28125 0.75 -0.28125 C 0.75 -0.28125 0.75 -0.273438 0.75 -0.265625 C 0.757812 -0.265625 0.757812 -0.257812 0.75 -0.25 C 0.675781 -0.15625 0.601562 -0.0820312 0.53125 -0.03125 C 0.46875 0.0078125 0.40625 0.03125 0.34375 0.03125 Z M 0.34375 0.03125 "
           id="path57" />
      </g>
    </g>
  </g>
  <g
     fill="#000080"
     fill-opacity="1"
     id="g63">
    <g
       transform="translate(42.592156, 36.26331)"
       id="g62">
      <g
         id="g61">
        <path
           d="M 1.109375 -1.40625 C 1.117188 -1.40625 1.125 -1.394531 1.125 -1.375 C 1.125 -1.351562 1.109375 -1.320312 1.078125 -1.28125 C 1.054688 -1.25 1.035156 -1.234375 1.015625 -1.234375 C 1.003906 -1.234375 0.960938 -1.238281 0.890625 -1.25 C 0.816406 -1.257812 0.738281 -1.265625 0.65625 -1.265625 L 0.5 -0.40625 C 0.488281 -0.363281 0.484375 -0.335938 0.484375 -0.328125 C 0.484375 -0.265625 0.5 -0.21875 0.53125 -0.1875 C 0.5625 -0.164062 0.609375 -0.15625 0.671875 -0.15625 C 0.765625 -0.15625 0.867188 -0.203125 0.984375 -0.296875 C 0.992188 -0.296875 1 -0.289062 1 -0.28125 C 1.007812 -0.269531 1.015625 -0.265625 1.015625 -0.265625 C 0.898438 -0.148438 0.800781 -0.0664062 0.71875 -0.015625 C 0.632812 0.0234375 0.546875 0.046875 0.453125 0.046875 C 0.253906 0.046875 0.15625 -0.0390625 0.15625 -0.21875 C 0.15625 -0.257812 0.160156 -0.300781 0.171875 -0.34375 L 0.3125 -1.109375 C 0.320312 -1.148438 0.328125 -1.1875 0.328125 -1.21875 C 0.328125 -1.25 0.316406 -1.269531 0.296875 -1.28125 C 0.273438 -1.300781 0.238281 -1.3125 0.1875 -1.3125 C 0.1875 -1.3125 0.1875 -1.316406 0.1875 -1.328125 C 0.1875 -1.347656 0.1875 -1.359375 0.1875 -1.359375 C 0.382812 -1.359375 0.539062 -1.46875 0.65625 -1.6875 C 0.65625 -1.695312 0.664062 -1.703125 0.6875 -1.703125 C 0.695312 -1.703125 0.707031 -1.695312 0.71875 -1.6875 C 0.726562 -1.6875 0.726562 -1.679688 0.71875 -1.671875 L 0.671875 -1.375 C 0.734375 -1.375 0.789062 -1.375 0.84375 -1.375 C 0.894531 -1.382812 0.9375 -1.390625 0.96875 -1.390625 C 1.03125 -1.398438 1.078125 -1.40625 1.109375 -1.40625 Z M 1.109375 -1.40625 "
           id="path60" />
      </g>
    </g>
  </g>
  <g
     fill="#000080"
     fill-opacity="1"
     id="g66">
    <g
       transform="translate(44.779858, 36.26331)"
       id="g65">
      <g
         id="g64">
        <path
           d="M 0.578125 0.046875 C 0.410156 0.046875 0.285156 -0.00390625 0.203125 -0.109375 C 0.117188 -0.210938 0.078125 -0.34375 0.078125 -0.5 C 0.078125 -0.570312 0.0859375 -0.640625 0.109375 -0.703125 C 0.128906 -0.847656 0.175781 -0.976562 0.25 -1.09375 C 0.332031 -1.207031 0.429688 -1.296875 0.546875 -1.359375 C 0.660156 -1.421875 0.78125 -1.453125 0.90625 -1.453125 C 1.070312 -1.453125 1.195312 -1.398438 1.28125 -1.296875 C 1.363281 -1.203125 1.40625 -1.070312 1.40625 -0.90625 C 1.40625 -0.84375 1.398438 -0.773438 1.390625 -0.703125 C 1.359375 -0.546875 1.300781 -0.410156 1.21875 -0.296875 C 1.132812 -0.179688 1.035156 -0.09375 0.921875 -0.03125 C 0.804688 0.0195312 0.691406 0.046875 0.578125 0.046875 Z M 0.703125 -0.046875 C 0.773438 -0.046875 0.835938 -0.0859375 0.890625 -0.171875 C 0.953125 -0.265625 1 -0.390625 1.03125 -0.546875 C 1.039062 -0.640625 1.046875 -0.734375 1.046875 -0.828125 C 1.046875 -0.984375 1.019531 -1.109375 0.96875 -1.203125 C 0.925781 -1.304688 0.863281 -1.359375 0.78125 -1.359375 C 0.707031 -1.359375 0.640625 -1.316406 0.578125 -1.234375 C 0.523438 -1.148438 0.488281 -1.023438 0.46875 -0.859375 C 0.445312 -0.765625 0.4375 -0.671875 0.4375 -0.578125 C 0.4375 -0.410156 0.457031 -0.28125 0.5 -0.1875 C 0.550781 -0.09375 0.617188 -0.046875 0.703125 -0.046875 Z M 0.703125 -0.046875 "
           id="path63" />
      </g>
    </g>
  </g>
  <g
     fill="#000080"
     fill-opacity="1"
     id="g69">
    <g
       transform="translate(47.357054, 36.26331)"
       id="g68">
      <g
         id="g67">
        <path
           d="M 1.078125 -1.4375 C 1.140625 -1.4375 1.195312 -1.410156 1.25 -1.359375 C 1.3125 -1.316406 1.335938 -1.269531 1.328125 -1.21875 C 1.328125 -1.175781 1.3125 -1.140625 1.28125 -1.109375 C 1.25 -1.078125 1.210938 -1.0625 1.171875 -1.0625 C 1.128906 -1.0625 1.082031 -1.082031 1.03125 -1.125 C 1.007812 -1.132812 0.988281 -1.144531 0.96875 -1.15625 C 0.957031 -1.164062 0.941406 -1.171875 0.921875 -1.171875 C 0.878906 -1.171875 0.828125 -1.101562 0.765625 -0.96875 C 0.710938 -0.84375 0.65625 -0.691406 0.59375 -0.515625 C 0.539062 -0.335938 0.503906 -0.179688 0.484375 -0.046875 C 0.484375 -0.0234375 0.460938 -0.0078125 0.421875 0 C 0.390625 0.0195312 0.34375 0.03125 0.28125 0.03125 C 0.195312 0.03125 0.15625 0.0195312 0.15625 0 C 0.15625 -0.0195312 0.160156 -0.0546875 0.171875 -0.109375 C 0.191406 -0.160156 0.207031 -0.210938 0.21875 -0.265625 L 0.375 -1.078125 C 0.375 -1.117188 0.375 -1.144531 0.375 -1.15625 C 0.375 -1.226562 0.351562 -1.265625 0.3125 -1.265625 C 0.257812 -1.265625 0.191406 -1.210938 0.109375 -1.109375 C 0.0976562 -1.109375 0.09375 -1.109375 0.09375 -1.109375 C 0.0820312 -1.109375 0.0703125 -1.113281 0.0625 -1.125 C 0.0625 -1.132812 0.0664062 -1.140625 0.078125 -1.140625 C 0.160156 -1.242188 0.234375 -1.316406 0.296875 -1.359375 C 0.367188 -1.410156 0.441406 -1.4375 0.515625 -1.4375 C 0.578125 -1.4375 0.617188 -1.421875 0.640625 -1.390625 C 0.671875 -1.359375 0.6875 -1.3125 0.6875 -1.25 C 0.6875 -1.207031 0.679688 -1.164062 0.671875 -1.125 L 0.609375 -0.71875 C 0.742188 -1.195312 0.898438 -1.4375 1.078125 -1.4375 Z M 1.078125 -1.4375 "
           id="path66" />
      </g>
    </g>
  </g>
  <g
     fill="#000080"
     fill-opacity="1"
     id="g72">
    <g
       transform="translate(49.744962, 36.26331)"
       id="g71">
      <g
         id="g70">
        <path
           d="M 0.625 -1.8125 C 0.5625 -1.8125 0.507812 -1.828125 0.46875 -1.859375 C 0.4375 -1.898438 0.421875 -1.957031 0.421875 -2.03125 C 0.421875 -2.082031 0.4375 -2.125 0.46875 -2.15625 C 0.507812 -2.195312 0.5625 -2.21875 0.625 -2.21875 C 0.6875 -2.21875 0.734375 -2.195312 0.765625 -2.15625 C 0.804688 -2.125 0.828125 -2.082031 0.828125 -2.03125 C 0.828125 -1.957031 0.804688 -1.898438 0.765625 -1.859375 C 0.734375 -1.828125 0.6875 -1.8125 0.625 -1.8125 Z M 0.390625 0.03125 C 0.273438 0.03125 0.21875 -0.0351562 0.21875 -0.171875 C 0.21875 -0.203125 0.222656 -0.253906 0.234375 -0.328125 L 0.375 -1.078125 C 0.382812 -1.109375 0.390625 -1.140625 0.390625 -1.171875 C 0.390625 -1.203125 0.382812 -1.222656 0.375 -1.234375 C 0.363281 -1.253906 0.347656 -1.265625 0.328125 -1.265625 C 0.273438 -1.265625 0.203125 -1.210938 0.109375 -1.109375 C 0.0976562 -1.109375 0.0859375 -1.113281 0.078125 -1.125 C 0.078125 -1.132812 0.078125 -1.140625 0.078125 -1.140625 C 0.171875 -1.242188 0.25 -1.316406 0.3125 -1.359375 C 0.382812 -1.410156 0.457031 -1.4375 0.53125 -1.4375 C 0.644531 -1.4375 0.703125 -1.375 0.703125 -1.25 C 0.703125 -1.207031 0.695312 -1.164062 0.6875 -1.125 L 0.53125 -0.328125 C 0.53125 -0.304688 0.53125 -0.273438 0.53125 -0.234375 C 0.53125 -0.179688 0.546875 -0.15625 0.578125 -0.15625 C 0.609375 -0.15625 0.632812 -0.164062 0.65625 -0.1875 C 0.6875 -0.207031 0.726562 -0.238281 0.78125 -0.28125 C 0.78125 -0.28125 0.785156 -0.28125 0.796875 -0.28125 C 0.796875 -0.28125 0.796875 -0.273438 0.796875 -0.265625 C 0.804688 -0.265625 0.804688 -0.257812 0.796875 -0.25 C 0.722656 -0.15625 0.648438 -0.0820312 0.578125 -0.03125 C 0.515625 0.0078125 0.453125 0.03125 0.390625 0.03125 Z M 0.390625 0.03125 "
           id="path69" />
      </g>
    </g>
  </g>
  <g
     fill="#000080"
     fill-opacity="1"
     id="g75">
    <g
       transform="translate(51.736096, 36.26331)"
       id="g74">
      <g
         id="g73">
        <path
           d="M 1.515625 -0.28125 C 1.523438 -0.28125 1.53125 -0.273438 1.53125 -0.265625 C 1.539062 -0.265625 1.546875 -0.257812 1.546875 -0.25 C 1.390625 -0.0625 1.25 0.03125 1.125 0.03125 C 1.0625 0.03125 1.015625 0.015625 0.984375 -0.015625 C 0.960938 -0.0546875 0.953125 -0.113281 0.953125 -0.1875 C 0.953125 -0.226562 0.957031 -0.273438 0.96875 -0.328125 L 1 -0.578125 C 0.90625 -0.378906 0.796875 -0.222656 0.671875 -0.109375 C 0.546875 -0.00390625 0.421875 0.046875 0.296875 0.046875 C 0.222656 0.046875 0.164062 0.0234375 0.125 -0.015625 C 0.0820312 -0.0664062 0.0625 -0.140625 0.0625 -0.234375 C 0.0625 -0.390625 0.113281 -0.5625 0.21875 -0.75 C 0.320312 -0.945312 0.453125 -1.113281 0.609375 -1.25 C 0.773438 -1.382812 0.929688 -1.453125 1.078125 -1.453125 C 1.117188 -1.453125 1.160156 -1.441406 1.203125 -1.421875 C 1.253906 -1.410156 1.296875 -1.390625 1.328125 -1.359375 C 1.367188 -1.390625 1.40625 -1.429688 1.4375 -1.484375 C 1.445312 -1.484375 1.453125 -1.484375 1.453125 -1.484375 C 1.460938 -1.484375 1.46875 -1.476562 1.46875 -1.46875 C 1.476562 -1.46875 1.484375 -1.46875 1.484375 -1.46875 L 1.28125 -0.328125 C 1.269531 -0.296875 1.265625 -0.265625 1.265625 -0.234375 C 1.265625 -0.179688 1.28125 -0.15625 1.3125 -0.15625 C 1.363281 -0.15625 1.429688 -0.195312 1.515625 -0.28125 Z M 0.53125 -0.21875 C 0.601562 -0.21875 0.675781 -0.253906 0.75 -0.328125 C 0.832031 -0.410156 0.898438 -0.503906 0.953125 -0.609375 C 1.015625 -0.722656 1.054688 -0.828125 1.078125 -0.921875 C 1.078125 -0.960938 1.078125 -1 1.078125 -1.03125 C 1.078125 -1.101562 1.054688 -1.160156 1.015625 -1.203125 C 0.984375 -1.253906 0.9375 -1.28125 0.875 -1.28125 C 0.769531 -1.28125 0.671875 -1.21875 0.578125 -1.09375 C 0.492188 -0.96875 0.4375 -0.8125 0.40625 -0.625 C 0.394531 -0.550781 0.390625 -0.492188 0.390625 -0.453125 C 0.390625 -0.367188 0.398438 -0.304688 0.421875 -0.265625 C 0.453125 -0.234375 0.488281 -0.21875 0.53125 -0.21875 Z M 0.53125 -0.21875 "
           id="path72" />
      </g>
    </g>
  </g>
</svg>
