<?xml version="1.0" encoding="UTF-8" standalone="no"?>
<svg
   width="77"
   zoomAndPan="magnify"
   viewBox="0 0 57.75 66"
   height="88"
   preserveAspectRatio="xMidYMid meet"
   version="1.0"
   id="svg75"
   sodipodi:docname="Vertical preto.svg"
   inkscape:export-filename="Vertical preto.png"
   inkscape:export-xdpi="3364.792"
   inkscape:export-ydpi="3364.792"
   inkscape:version="1.3.2 (091e20e, 2023-11-25, custom)"
   xmlns:inkscape="http://www.inkscape.org/namespaces/inkscape"
   xmlns:sodipodi="http://sodipodi.sourceforge.net/DTD/sodipodi-0.dtd"
   xmlns="http://www.w3.org/2000/svg"
   xmlns:svg="http://www.w3.org/2000/svg">
  <sodipodi:namedview
     id="namedview75"
     pagecolor="#ffffff"
     bordercolor="#000000"
     borderopacity="0.25"
     inkscape:showpageshadow="2"
     inkscape:pageopacity="0.0"
     inkscape:pagecheckerboard="0"
     inkscape:deskcolor="#d1d1d1"
     inkscape:zoom="8.9318182"
     inkscape:cx="38.513995"
     inkscape:cy="44"
     inkscape:window-width="1920"
     inkscape:window-height="995"
     inkscape:window-x="-9"
     inkscape:window-y="-9"
     inkscape:window-maximized="1"
     inkscape:current-layer="svg75" />
  <defs
     id="defs7">
    <g
       id="g1" />
    <clipPath
       id="7cbef34da3">
      <path
         d="M 0 0.140625 L 57.5 0.140625 L 57.5 65.855469 L 0 65.855469 Z M 0 0.140625 "
         clip-rule="nonzero"
         id="path1" />
    </clipPath>
    <clipPath
       id="64a3d74a3d">
      <path
         d="M 18 18 L 34 18 L 34 39 L 18 39 Z M 18 18 "
         clip-rule="nonzero"
         id="path2" />
    </clipPath>
    <clipPath
       id="f81b868ed4">
      <path
         d="M 28.898438 18.613281 L 33.421875 21.34375 L 23.199219 38.285156 L 18.671875 35.554688 Z M 28.898438 18.613281 "
         clip-rule="nonzero"
         id="path3" />
    </clipPath>
    <clipPath
       id="38117d4ce6">
      <path
         d="M 19 21 L 30 21 L 30 32 L 19 32 Z M 19 21 "
         clip-rule="nonzero"
         id="path4" />
    </clipPath>
    <clipPath
       id="48d0ee1619">
      <path
         d="M 22.933594 21.3125 L 29.097656 25.03125 L 25.308594 31.3125 L 19.140625 27.59375 Z M 22.933594 21.3125 "
         clip-rule="nonzero"
         id="path5" />
    </clipPath>
    <clipPath
       id="2f174b84aa">
      <path
         d="M 26 21 L 36 21 L 36 32 L 26 32 Z M 26 21 "
         clip-rule="nonzero"
         id="path6" />
    </clipPath>
    <clipPath
       id="89d64f904d">
      <path
         d="M 29.734375 21.980469 L 35.902344 25.699219 L 32.515625 31.3125 L 26.347656 27.589844 Z M 29.734375 21.980469 "
         clip-rule="nonzero"
         id="path7" />
    </clipPath>
  </defs>
  <g
     clip-path="url(#7cbef34da3)"
     id="g9">
    <path
       fill="#ffffff"
       d="M 0 0.140625 L 57.5 0.140625 L 57.5 65.859375 L 0 65.859375 Z M 0 0.140625 "
       fill-opacity="1"
       fill-rule="nonzero"
       id="path8" />
    <path
       fill="#000000"
       d="M 0 0.140625 L 57.5 0.140625 L 57.5 65.859375 L 0 65.859375 Z M 0 0.140625 "
       fill-opacity="1"
       fill-rule="nonzero"
       id="path9" />
  </g>
  <g
     fill="#ffffff"
     fill-opacity="1"
     id="g12">
    <g
       transform="translate(12.112731, 28.098227)"
       id="g11">
      <g
         id="g10">
        <path
           d="M 20.359375 -0.359375 C 20.410156 -0.359375 20.4375 -0.296875 20.4375 -0.171875 C 20.4375 -0.0546875 20.410156 0 20.359375 0 L 16.859375 0 C 16.359375 0 15.390625 -0.835938 13.953125 -2.515625 C 12.515625 -4.191406 10.804688 -6.492188 8.828125 -9.421875 C 8.117188 -9.285156 7.484375 -9.21875 6.921875 -9.21875 C 6.847656 -9.21875 6.414062 -9.242188 5.625 -9.296875 L 5.625 -2.4375 C 5.625 -1.8125 5.6875 -1.359375 5.8125 -1.078125 C 5.945312 -0.796875 6.195312 -0.601562 6.5625 -0.5 C 6.925781 -0.40625 7.507812 -0.359375 8.3125 -0.359375 C 8.375 -0.359375 8.40625 -0.296875 8.40625 -0.171875 C 8.40625 -0.0546875 8.375 0 8.3125 0 C 7.707031 0 7.222656 -0.0078125 6.859375 -0.03125 L 4.8125 -0.0625 L 2.828125 -0.03125 C 2.460938 -0.0078125 1.960938 0 1.328125 0 C 1.285156 0 1.265625 -0.0546875 1.265625 -0.171875 C 1.265625 -0.296875 1.285156 -0.359375 1.328125 -0.359375 C 2.128906 -0.359375 2.710938 -0.40625 3.078125 -0.5 C 3.453125 -0.601562 3.707031 -0.800781 3.84375 -1.09375 C 3.988281 -1.382812 4.0625 -1.832031 4.0625 -2.4375 L 4.0625 -16.375 C 4.0625 -16.976562 3.992188 -17.421875 3.859375 -17.703125 C 3.734375 -17.984375 3.484375 -18.175781 3.109375 -18.28125 C 2.742188 -18.394531 2.171875 -18.453125 1.390625 -18.453125 C 1.328125 -18.453125 1.296875 -18.507812 1.296875 -18.625 C 1.296875 -18.75 1.328125 -18.8125 1.390625 -18.8125 L 2.828125 -18.78125 C 3.628906 -18.75 4.289062 -18.734375 4.8125 -18.734375 C 5.257812 -18.734375 5.675781 -18.738281 6.0625 -18.75 C 6.457031 -18.769531 6.796875 -18.789062 7.078125 -18.8125 C 7.796875 -18.875 8.4375 -18.90625 9 -18.90625 C 10.507812 -18.90625 11.679688 -18.535156 12.515625 -17.796875 C 13.347656 -17.066406 13.765625 -16.101562 13.765625 -14.90625 C 13.765625 -13.84375 13.441406 -12.875 12.796875 -12 C 12.148438 -11.125 11.296875 -10.4375 10.234375 -9.9375 C 11.960938 -7.488281 13.40625 -5.582031 14.5625 -4.21875 C 15.726562 -2.851562 16.765625 -1.867188 17.671875 -1.265625 C 18.578125 -0.660156 19.472656 -0.359375 20.359375 -0.359375 Z M 5.625 -10 C 6.1875 -9.9375 6.789062 -9.90625 7.4375 -9.90625 C 9.101562 -9.90625 10.289062 -10.25 11 -10.9375 C 11.71875 -11.632812 12.078125 -12.6875 12.078125 -14.09375 C 12.078125 -15.632812 11.695312 -16.753906 10.9375 -17.453125 C 10.1875 -18.160156 9.097656 -18.515625 7.671875 -18.515625 C 6.910156 -18.515625 6.378906 -18.375 6.078125 -18.09375 C 5.773438 -17.8125 5.625 -17.21875 5.625 -16.3125 Z M 5.625 -10 "
           id="path10" />
      </g>
    </g>
  </g>
  <g
     fill="#ffffff"
     fill-opacity="1"
     id="g15">
    <g
       transform="translate(22.430383, 42.801198)"
       id="g14">
      <g
         id="g13">
        <path
           d="M 21.046875 -18.8125 C 21.109375 -18.8125 21.140625 -18.75 21.140625 -18.625 C 21.140625 -18.507812 21.109375 -18.453125 21.046875 -18.453125 C 20.179688 -18.453125 19.570312 -18.238281 19.21875 -17.8125 C 18.875 -17.394531 18.703125 -16.675781 18.703125 -15.65625 L 18.703125 0.328125 C 18.703125 0.367188 18.648438 0.398438 18.546875 0.421875 C 18.441406 0.441406 18.375 0.429688 18.34375 0.390625 L 4.734375 -16.34375 L 4.21875 -16.921875 L 4.21875 -3.125 C 4.21875 -2.101562 4.382812 -1.382812 4.71875 -0.96875 C 5.0625 -0.5625 5.65625 -0.359375 6.5 -0.359375 C 6.5625 -0.359375 6.59375 -0.296875 6.59375 -0.171875 C 6.59375 -0.0546875 6.5625 0 6.5 0 C 6.019531 0 5.648438 -0.0078125 5.390625 -0.03125 L 3.9375 -0.0625 L 2.46875 -0.03125 C 2.207031 -0.0078125 1.816406 0 1.296875 0 C 1.253906 0 1.234375 -0.0546875 1.234375 -0.171875 C 1.234375 -0.296875 1.253906 -0.359375 1.296875 -0.359375 C 2.160156 -0.359375 2.75 -0.554688 3.0625 -0.953125 C 3.382812 -1.359375 3.546875 -2.082031 3.546875 -3.125 L 3.546875 -17.546875 C 2.847656 -18.148438 2.128906 -18.453125 1.390625 -18.453125 C 1.328125 -18.453125 1.296875 -18.507812 1.296875 -18.625 C 1.296875 -18.75 1.328125 -18.8125 1.390625 -18.8125 L 2.46875 -18.78125 C 2.6875 -18.769531 3 -18.765625 3.40625 -18.765625 C 3.75 -18.765625 4.03125 -18.769531 4.25 -18.78125 C 4.46875 -18.800781 4.632812 -18.8125 4.75 -18.8125 C 4.894531 -18.8125 5.007812 -18.773438 5.09375 -18.703125 C 5.1875 -18.640625 5.296875 -18.5 5.421875 -18.28125 C 5.640625 -17.914062 5.878906 -17.570312 6.140625 -17.25 L 18.03125 -2.46875 L 18.03125 -15.65625 C 18.03125 -16.675781 17.867188 -17.394531 17.546875 -17.8125 C 17.234375 -18.238281 16.65625 -18.453125 15.8125 -18.453125 C 15.769531 -18.453125 15.75 -18.507812 15.75 -18.625 C 15.75 -18.75 15.769531 -18.8125 15.8125 -18.8125 L 16.953125 -18.78125 C 17.554688 -18.75 18.035156 -18.734375 18.390625 -18.734375 C 18.734375 -18.734375 19.226562 -18.75 19.875 -18.78125 Z M 21.046875 -18.8125 "
           id="path12" />
      </g>
    </g>
  </g>
  <g
     clip-path="url(#64a3d74a3d)"
     id="g17">
    <g
       clip-path="url(#f81b868ed4)"
       id="g16">
      <path
         fill="#000000"
         d="M 28.898438 18.613281 L 33.421875 21.34375 L 23.191406 38.292969 L 18.667969 35.5625 Z M 28.898438 18.613281 "
         fill-opacity="1"
         fill-rule="nonzero"
         id="path15" />
    </g>
  </g>
  <g
     clip-path="url(#38117d4ce6)"
     id="g19">
    <g
       clip-path="url(#48d0ee1619)"
       id="g18">
      <path
         fill="#000000"
         d="M 22.933594 21.3125 L 29.097656 25.03125 L 25.304688 31.316406 L 19.140625 27.597656 Z M 22.933594 21.3125 "
         fill-opacity="1"
         fill-rule="nonzero"
         id="path17" />
    </g>
  </g>
  <g
     clip-path="url(#2f174b84aa)"
     id="g21">
    <g
       clip-path="url(#89d64f904d)"
       id="g20">
      <path
         fill="#000000"
         d="M 29.734375 21.980469 L 35.894531 25.695312 L 32.507812 31.308594 L 26.347656 27.589844 Z M 29.734375 21.980469 "
         fill-opacity="1"
         fill-rule="nonzero"
         id="path19" />
    </g>
  </g>
  <path
     stroke-linecap="butt"
     transform="matrix(1.048769, -1.493285, 1.493285, 1.048769, 16.283199, 40.16397)"
     fill="none"
     stroke-linejoin="miter"
     d="M 0.000826916 0.500362 L 18.00106 0.500914 "
     stroke="#ffffff"
     stroke-width="1"
     stroke-opacity="1"
     stroke-miterlimit="4"
     id="path21"
     style="stroke-width:0.41100879;stroke-dasharray:none" />
  <g
     fill="#ffffff"
     fill-opacity="1"
     id="g24">
    <g
       transform="translate(7.133208, 57.172462)"
       id="g23">
      <g
         id="g22">
        <path
           d="M 3.359375 0 L 2.5625 -1.328125 C 2.519531 -1.328125 2.453125 -1.328125 2.359375 -1.328125 L 1.3125 -1.328125 L 1.3125 0 L 0.578125 0 L 0.578125 -4.390625 L 2.359375 -4.390625 C 2.921875 -4.390625 3.359375 -4.257812 3.671875 -4 C 3.984375 -3.738281 4.140625 -3.367188 4.140625 -2.890625 C 4.140625 -2.546875 4.054688 -2.25 3.890625 -2 C 3.734375 -1.757812 3.507812 -1.582031 3.21875 -1.46875 L 4.203125 0 Z M 1.3125 -1.984375 L 2.359375 -1.984375 C 3.066406 -1.984375 3.421875 -2.28125 3.421875 -2.875 C 3.421875 -3.445312 3.066406 -3.734375 2.359375 -3.734375 L 1.3125 -3.734375 Z M 1.3125 -1.984375 "
           id="path22" />
      </g>
    </g>
  </g>
  <g
     fill="#ffffff"
     fill-opacity="1"
     id="g27">
    <g
       transform="translate(14.190527, 57.172462)"
       id="g26">
      <g
         id="g25" />
    </g>
  </g>
  <g
     fill="#ffffff"
     fill-opacity="1"
     id="g30">
    <g
       transform="translate(18.325763, 57.172462)"
       id="g29">
      <g
         id="g28">
        <path
           d="M 4.390625 0 L 3.65625 0 L 1.3125 -3.15625 L 1.3125 0 L 0.578125 0 L 0.578125 -4.390625 L 1.3125 -4.390625 L 3.65625 -1.234375 L 3.65625 -4.390625 L 4.390625 -4.390625 Z M 4.390625 0 "
           id="path27" />
      </g>
    </g>
  </g>
  <g
     fill="#ffffff"
     fill-opacity="1"
     id="g33">
    <g
       transform="translate(25.816677, 57.172462)"
       id="g32">
      <g
         id="g31">
        <path
           d="M 3.421875 -1 L 1.203125 -1 L 0.78125 0 L 0 0 L 1.953125 -4.390625 L 2.703125 -4.390625 L 4.625 0 L 3.84375 0 Z M 3.140625 -1.65625 L 2.3125 -3.609375 L 1.46875 -1.65625 Z M 3.140625 -1.65625 "
           id="path30" />
      </g>
    </g>
  </g>
  <g
     fill="#ffffff"
     fill-opacity="1"
     id="g36">
    <g
       transform="translate(32.968255, 57.172462)"
       id="g35">
      <g
         id="g34">
        <path
           d="M 2.53125 0 L 1.765625 0 L 0.015625 -4.390625 L 0.8125 -4.390625 L 2.171875 -0.828125 L 3.546875 -4.390625 L 4.3125 -4.390625 Z M 2.53125 0 "
           id="path33" />
      </g>
    </g>
  </g>
  <g
     fill="#ffffff"
     fill-opacity="1"
     id="g39">
    <g
       transform="translate(39.818197, 57.172462)"
       id="g38">
      <g
         id="g37">
        <path
           d="M 3.71875 -3.734375 L 1.3125 -3.734375 L 1.3125 -2.546875 L 3.46875 -2.546875 L 3.46875 -1.875 L 1.3125 -1.875 L 1.3125 -0.671875 L 3.796875 -0.671875 L 3.796875 0 L 0.578125 0 L 0.578125 -4.390625 L 3.71875 -4.390625 Z M 3.71875 -3.734375 "
           id="path36" />
      </g>
    </g>
  </g>
  <g
     fill="#ffffff"
     fill-opacity="1"
     id="g42">
    <g
       transform="translate(46.45448, 57.172462)"
       id="g41">
      <g
         id="g40">
        <path
           d="M 2.015625 -4.421875 C 2.585938 -4.421875 3.101562 -4.269531 3.5625 -3.96875 L 3.25 -3.328125 C 2.800781 -3.597656 2.375 -3.734375 1.96875 -3.734375 C 1.75 -3.734375 1.570312 -3.691406 1.4375 -3.609375 C 1.3125 -3.535156 1.25 -3.421875 1.25 -3.265625 C 1.25 -3.117188 1.304688 -2.992188 1.421875 -2.890625 C 1.546875 -2.796875 1.691406 -2.722656 1.859375 -2.671875 C 2.035156 -2.617188 2.226562 -2.554688 2.4375 -2.484375 C 2.644531 -2.410156 2.832031 -2.332031 3 -2.25 C 3.175781 -2.175781 3.320312 -2.050781 3.4375 -1.875 C 3.5625 -1.695312 3.625 -1.488281 3.625 -1.25 C 3.625 -0.863281 3.46875 -0.550781 3.15625 -0.3125 C 2.84375 -0.0820312 2.441406 0.03125 1.953125 0.03125 C 1.617188 0.03125 1.296875 -0.03125 0.984375 -0.15625 C 0.671875 -0.289062 0.394531 -0.460938 0.15625 -0.671875 L 0.484375 -1.3125 C 0.703125 -1.101562 0.941406 -0.941406 1.203125 -0.828125 C 1.472656 -0.722656 1.726562 -0.671875 1.96875 -0.671875 C 2.226562 -0.671875 2.429688 -0.71875 2.578125 -0.8125 C 2.722656 -0.90625 2.796875 -1.035156 2.796875 -1.203125 C 2.796875 -1.359375 2.734375 -1.484375 2.609375 -1.578125 C 2.492188 -1.679688 2.347656 -1.757812 2.171875 -1.8125 C 2.003906 -1.863281 1.816406 -1.921875 1.609375 -1.984375 C 1.398438 -2.054688 1.207031 -2.128906 1.03125 -2.203125 C 0.851562 -2.285156 0.707031 -2.410156 0.59375 -2.578125 C 0.476562 -2.753906 0.421875 -2.960938 0.421875 -3.203125 C 0.421875 -3.578125 0.566406 -3.875 0.859375 -4.09375 C 1.148438 -4.3125 1.535156 -4.421875 2.015625 -4.421875 Z M 2.015625 -4.421875 "
           id="path39" />
      </g>
    </g>
  </g>
  <g
     fill="#ffffff"
     fill-opacity="1"
     id="g45">
    <g
       transform="translate(8.218807, 63.42538)"
       id="g44">
      <g
         id="g43">
        <path
           d="M 1.8125 0.0625 C 1.289062 0.0625 0.90625 -0.0703125 0.65625 -0.34375 C 0.414062 -0.613281 0.296875 -0.953125 0.296875 -1.359375 C 0.296875 -1.484375 0.3125 -1.617188 0.34375 -1.765625 C 0.40625 -2.140625 0.546875 -2.460938 0.765625 -2.734375 C 0.984375 -3.015625 1.238281 -3.226562 1.53125 -3.375 C 1.832031 -3.519531 2.144531 -3.59375 2.46875 -3.59375 C 2.613281 -3.59375 2.765625 -3.578125 2.921875 -3.546875 C 3.085938 -3.515625 3.21875 -3.476562 3.3125 -3.4375 C 3.332031 -3.414062 3.34375 -3.394531 3.34375 -3.375 C 3.351562 -3.363281 3.359375 -3.335938 3.359375 -3.296875 L 3.265625 -2.546875 C 3.265625 -2.535156 3.253906 -2.53125 3.234375 -2.53125 C 3.210938 -2.53125 3.203125 -2.535156 3.203125 -2.546875 C 3.140625 -2.828125 3.023438 -3.046875 2.859375 -3.203125 C 2.691406 -3.359375 2.484375 -3.4375 2.234375 -3.4375 C 1.898438 -3.4375 1.617188 -3.304688 1.390625 -3.046875 C 1.171875 -2.785156 1.03125 -2.421875 0.96875 -1.953125 C 0.945312 -1.796875 0.9375 -1.644531 0.9375 -1.5 C 0.9375 -1.21875 0.972656 -0.96875 1.046875 -0.75 C 1.117188 -0.53125 1.222656 -0.359375 1.359375 -0.234375 C 1.492188 -0.109375 1.65625 -0.046875 1.84375 -0.046875 C 2.03125 -0.046875 2.222656 -0.113281 2.421875 -0.25 C 2.617188 -0.394531 2.828125 -0.613281 3.046875 -0.90625 C 3.046875 -0.914062 3.050781 -0.921875 3.0625 -0.921875 C 3.070312 -0.921875 3.082031 -0.914062 3.09375 -0.90625 C 3.101562 -0.90625 3.109375 -0.898438 3.109375 -0.890625 L 2.953125 -0.234375 C 2.941406 -0.191406 2.929688 -0.160156 2.921875 -0.140625 C 2.910156 -0.128906 2.882812 -0.117188 2.84375 -0.109375 C 2.507812 0.00390625 2.164062 0.0625 1.8125 0.0625 Z M 1.8125 0.0625 "
           id="path42" />
      </g>
    </g>
  </g>
  <g
     fill="#ffffff"
     fill-opacity="1"
     id="g48">
    <g
       transform="translate(13.236779, 63.42538)"
       id="g47">
      <g
         id="g46">
        <path
           d="M 0.890625 0.078125 C 0.640625 0.078125 0.445312 0 0.3125 -0.15625 C 0.1875 -0.320312 0.125 -0.53125 0.125 -0.78125 C 0.125 -0.894531 0.132812 -1 0.15625 -1.09375 C 0.195312 -1.320312 0.28125 -1.523438 0.40625 -1.703125 C 0.53125 -1.878906 0.675781 -2.015625 0.84375 -2.109375 C 1.019531 -2.203125 1.207031 -2.25 1.40625 -2.25 C 1.65625 -2.25 1.847656 -2.171875 1.984375 -2.015625 C 2.117188 -1.867188 2.1875 -1.664062 2.1875 -1.40625 C 2.1875 -1.3125 2.175781 -1.207031 2.15625 -1.09375 C 2.101562 -0.84375 2.007812 -0.628906 1.875 -0.453125 C 1.75 -0.273438 1.597656 -0.140625 1.421875 -0.046875 C 1.253906 0.0351562 1.078125 0.078125 0.890625 0.078125 Z M 1.09375 -0.0625 C 1.207031 -0.0625 1.304688 -0.128906 1.390625 -0.265625 C 1.484375 -0.410156 1.550781 -0.601562 1.59375 -0.84375 C 1.625 -0.988281 1.640625 -1.140625 1.640625 -1.296875 C 1.640625 -1.535156 1.597656 -1.734375 1.515625 -1.890625 C 1.441406 -2.046875 1.34375 -2.125 1.21875 -2.125 C 1.101562 -2.125 1 -2.054688 0.90625 -1.921875 C 0.820312 -1.785156 0.757812 -1.585938 0.71875 -1.328125 C 0.6875 -1.179688 0.671875 -1.035156 0.671875 -0.890625 C 0.671875 -0.640625 0.707031 -0.4375 0.78125 -0.28125 C 0.851562 -0.132812 0.957031 -0.0625 1.09375 -0.0625 Z M 1.09375 -0.0625 "
           id="path45" />
      </g>
    </g>
  </g>
  <g
     fill="#ffffff"
     fill-opacity="1"
     id="g51">
    <g
       transform="translate(17.237598, 63.42538)"
       id="g50">
      <g
         id="g49">
        <path
           d="M 2.515625 -0.4375 C 2.523438 -0.445312 2.535156 -0.453125 2.546875 -0.453125 C 2.554688 -0.453125 2.5625 -0.441406 2.5625 -0.421875 C 2.570312 -0.410156 2.570312 -0.398438 2.5625 -0.390625 C 2.4375 -0.234375 2.320312 -0.117188 2.21875 -0.046875 C 2.125 0.015625 2.023438 0.046875 1.921875 0.046875 C 1.734375 0.046875 1.640625 -0.0546875 1.640625 -0.265625 C 1.640625 -0.316406 1.648438 -0.394531 1.671875 -0.5 L 1.84375 -1.40625 C 1.851562 -1.507812 1.859375 -1.59375 1.859375 -1.65625 C 1.859375 -1.84375 1.800781 -1.9375 1.6875 -1.9375 C 1.582031 -1.9375 1.472656 -1.863281 1.359375 -1.71875 C 1.242188 -1.582031 1.132812 -1.382812 1.03125 -1.125 C 0.9375 -0.863281 0.851562 -0.546875 0.78125 -0.171875 L 0.765625 -0.0625 C 0.742188 0.0078125 0.640625 0.046875 0.453125 0.046875 C 0.328125 0.046875 0.265625 0.03125 0.265625 0 L 0.28125 -0.125 C 0.320312 -0.300781 0.34375 -0.398438 0.34375 -0.421875 L 0.578125 -1.6875 C 0.585938 -1.71875 0.59375 -1.753906 0.59375 -1.796875 C 0.59375 -1.898438 0.5625 -1.953125 0.5 -1.953125 C 0.414062 -1.953125 0.304688 -1.878906 0.171875 -1.734375 C 0.160156 -1.722656 0.15625 -1.71875 0.15625 -1.71875 C 0.144531 -1.71875 0.132812 -1.722656 0.125 -1.734375 C 0.113281 -1.753906 0.113281 -1.769531 0.125 -1.78125 C 0.257812 -1.9375 0.378906 -2.050781 0.484375 -2.125 C 0.597656 -2.195312 0.707031 -2.234375 0.8125 -2.234375 C 0.988281 -2.234375 1.078125 -2.132812 1.078125 -1.9375 C 1.078125 -1.875 1.070312 -1.8125 1.0625 -1.75 L 0.96875 -1.234375 C 1.101562 -1.554688 1.253906 -1.804688 1.421875 -1.984375 C 1.597656 -2.160156 1.78125 -2.25 1.96875 -2.25 C 2.226562 -2.25 2.359375 -2.09375 2.359375 -1.78125 C 2.359375 -1.71875 2.351562 -1.628906 2.34375 -1.515625 L 2.15625 -0.5 C 2.132812 -0.445312 2.125 -0.40625 2.125 -0.375 C 2.125 -0.28125 2.15625 -0.234375 2.21875 -0.234375 C 2.257812 -0.234375 2.300781 -0.25 2.34375 -0.28125 C 2.394531 -0.320312 2.453125 -0.375 2.515625 -0.4375 Z M 2.515625 -0.4375 "
           id="path48" />
      </g>
    </g>
  </g>
  <g
     fill="#ffffff"
     fill-opacity="1"
     id="g54">
    <g
       transform="translate(21.617023, 63.42538)"
       id="g53">
      <g
         id="g52">
        <path
           d="M 0.609375 0.0625 C 0.453125 0.0625 0.316406 0.0234375 0.203125 -0.046875 C 0.0859375 -0.117188 0.03125 -0.207031 0.03125 -0.3125 C 0.03125 -0.394531 0.0507812 -0.457031 0.09375 -0.5 C 0.144531 -0.550781 0.207031 -0.578125 0.28125 -0.578125 C 0.34375 -0.578125 0.390625 -0.554688 0.421875 -0.515625 C 0.460938 -0.484375 0.507812 -0.429688 0.5625 -0.359375 C 0.613281 -0.285156 0.660156 -0.226562 0.703125 -0.1875 C 0.742188 -0.144531 0.800781 -0.125 0.875 -0.125 C 0.945312 -0.125 1 -0.140625 1.03125 -0.171875 C 1.0625 -0.210938 1.082031 -0.273438 1.09375 -0.359375 C 1.09375 -0.367188 1.09375 -0.390625 1.09375 -0.421875 C 1.09375 -0.535156 1.0625 -0.628906 1 -0.703125 C 0.9375 -0.785156 0.835938 -0.878906 0.703125 -0.984375 C 0.566406 -1.097656 0.460938 -1.191406 0.390625 -1.265625 C 0.328125 -1.347656 0.296875 -1.445312 0.296875 -1.5625 C 0.296875 -1.582031 0.300781 -1.617188 0.3125 -1.671875 C 0.332031 -1.765625 0.378906 -1.851562 0.453125 -1.9375 C 0.535156 -2.019531 0.632812 -2.085938 0.75 -2.140625 C 0.875 -2.203125 1.007812 -2.234375 1.15625 -2.234375 C 1.332031 -2.234375 1.46875 -2.203125 1.5625 -2.140625 C 1.664062 -2.085938 1.710938 -2.007812 1.703125 -1.90625 C 1.691406 -1.832031 1.660156 -1.773438 1.609375 -1.734375 C 1.554688 -1.691406 1.503906 -1.671875 1.453125 -1.671875 C 1.367188 -1.671875 1.304688 -1.6875 1.265625 -1.71875 C 1.234375 -1.757812 1.203125 -1.8125 1.171875 -1.875 C 1.140625 -1.945312 1.109375 -2 1.078125 -2.03125 C 1.046875 -2.0625 0.988281 -2.078125 0.90625 -2.078125 C 0.84375 -2.078125 0.796875 -2.054688 0.765625 -2.015625 C 0.734375 -1.984375 0.710938 -1.945312 0.703125 -1.90625 C 0.703125 -1.894531 0.703125 -1.875 0.703125 -1.84375 C 0.703125 -1.738281 0.734375 -1.648438 0.796875 -1.578125 C 0.859375 -1.503906 0.957031 -1.414062 1.09375 -1.3125 C 1.238281 -1.1875 1.34375 -1.082031 1.40625 -1 C 1.476562 -0.914062 1.515625 -0.816406 1.515625 -0.703125 C 1.515625 -0.679688 1.507812 -0.648438 1.5 -0.609375 C 1.476562 -0.503906 1.425781 -0.398438 1.34375 -0.296875 C 1.269531 -0.191406 1.164062 -0.101562 1.03125 -0.03125 C 0.90625 0.03125 0.765625 0.0625 0.609375 0.0625 Z M 0.609375 0.0625 "
           id="path51" />
      </g>
    </g>
  </g>
  <g
     fill="#ffffff"
     fill-opacity="1"
     id="g57">
    <g
       transform="translate(25.097955, 63.42538)"
       id="g56">
      <g
         id="g55">
        <path
           d="M 2.515625 -0.453125 C 2.523438 -0.453125 2.535156 -0.453125 2.546875 -0.453125 C 2.554688 -0.453125 2.5625 -0.445312 2.5625 -0.4375 C 2.570312 -0.425781 2.570312 -0.414062 2.5625 -0.40625 C 2.425781 -0.238281 2.304688 -0.117188 2.203125 -0.046875 C 2.097656 0.015625 1.988281 0.046875 1.875 0.046875 C 1.695312 0.046875 1.609375 -0.0507812 1.609375 -0.25 C 1.609375 -0.300781 1.613281 -0.363281 1.625 -0.4375 L 1.71875 -0.953125 C 1.582031 -0.617188 1.425781 -0.363281 1.25 -0.1875 C 1.082031 -0.0078125 0.90625 0.078125 0.71875 0.078125 C 0.457031 0.078125 0.328125 -0.078125 0.328125 -0.390625 C 0.328125 -0.484375 0.335938 -0.578125 0.359375 -0.671875 L 0.546875 -1.6875 C 0.566406 -1.738281 0.578125 -1.78125 0.578125 -1.8125 C 0.578125 -1.90625 0.546875 -1.953125 0.484375 -1.953125 C 0.441406 -1.953125 0.398438 -1.929688 0.359375 -1.890625 C 0.316406 -1.859375 0.257812 -1.8125 0.1875 -1.75 C 0.175781 -1.738281 0.164062 -1.734375 0.15625 -1.734375 C 0.144531 -1.734375 0.132812 -1.738281 0.125 -1.75 C 0.125 -1.769531 0.128906 -1.785156 0.140625 -1.796875 C 0.265625 -1.941406 0.375 -2.050781 0.46875 -2.125 C 0.570312 -2.195312 0.675781 -2.234375 0.78125 -2.234375 C 0.96875 -2.234375 1.0625 -2.125 1.0625 -1.90625 C 1.0625 -1.851562 1.050781 -1.78125 1.03125 -1.6875 L 0.859375 -0.78125 C 0.835938 -0.695312 0.828125 -0.613281 0.828125 -0.53125 C 0.828125 -0.34375 0.882812 -0.25 1 -0.25 C 1.113281 -0.25 1.222656 -0.316406 1.328125 -0.453125 C 1.441406 -0.585938 1.546875 -0.785156 1.640625 -1.046875 C 1.742188 -1.316406 1.832031 -1.640625 1.90625 -2.015625 L 1.921875 -2.109375 C 1.941406 -2.191406 2.046875 -2.234375 2.234375 -2.234375 C 2.304688 -2.234375 2.351562 -2.226562 2.375 -2.21875 C 2.40625 -2.207031 2.421875 -2.195312 2.421875 -2.1875 L 2.40625 -2.0625 C 2.363281 -1.882812 2.34375 -1.785156 2.34375 -1.765625 L 2.109375 -0.5 C 2.097656 -0.46875 2.09375 -0.425781 2.09375 -0.375 C 2.09375 -0.269531 2.125 -0.21875 2.1875 -0.21875 C 2.269531 -0.21875 2.378906 -0.296875 2.515625 -0.453125 Z M 2.515625 -0.453125 "
           id="path54" />
      </g>
    </g>
  </g>
  <g
     fill="#ffffff"
     fill-opacity="1"
     id="g60">
    <g
       transform="translate(29.483027, 63.42538)"
       id="g59">
      <g
         id="g58">
        <path
           d="M 0.53125 0.046875 C 0.351562 0.046875 0.265625 -0.0546875 0.265625 -0.265625 C 0.265625 -0.347656 0.269531 -0.425781 0.28125 -0.5 L 0.796875 -3.328125 C 0.804688 -3.398438 0.8125 -3.460938 0.8125 -3.515625 C 0.8125 -3.628906 0.78125 -3.6875 0.71875 -3.6875 C 0.664062 -3.6875 0.582031 -3.660156 0.46875 -3.609375 C 0.445312 -3.609375 0.4375 -3.617188 0.4375 -3.640625 C 0.4375 -3.660156 0.441406 -3.671875 0.453125 -3.671875 L 1.328125 -4.09375 L 1.34375 -4.09375 C 1.351562 -4.09375 1.363281 -4.085938 1.375 -4.078125 C 1.394531 -4.066406 1.398438 -4.0625 1.390625 -4.0625 L 0.765625 -0.5 C 0.753906 -0.445312 0.75 -0.398438 0.75 -0.359375 C 0.75 -0.273438 0.773438 -0.234375 0.828125 -0.234375 C 0.867188 -0.234375 0.910156 -0.25 0.953125 -0.28125 C 1.003906 -0.320312 1.0625 -0.375 1.125 -0.4375 C 1.132812 -0.445312 1.144531 -0.453125 1.15625 -0.453125 C 1.164062 -0.453125 1.171875 -0.441406 1.171875 -0.421875 C 1.179688 -0.410156 1.179688 -0.398438 1.171875 -0.390625 C 1.046875 -0.234375 0.929688 -0.117188 0.828125 -0.046875 C 0.734375 0.015625 0.632812 0.046875 0.53125 0.046875 Z M 0.53125 0.046875 "
           id="path57" />
      </g>
    </g>
  </g>
  <g
     fill="#ffffff"
     fill-opacity="1"
     id="g63">
    <g
       transform="translate(32.574048, 63.42538)"
       id="g62">
      <g
         id="g61">
        <path
           d="M 1.71875 -2.1875 C 1.75 -2.1875 1.765625 -2.164062 1.765625 -2.125 C 1.765625 -2.101562 1.738281 -2.0625 1.6875 -2 C 1.644531 -1.9375 1.609375 -1.90625 1.578125 -1.90625 C 1.566406 -1.90625 1.503906 -1.914062 1.390625 -1.9375 C 1.273438 -1.957031 1.148438 -1.96875 1.015625 -1.96875 L 0.78125 -0.625 C 0.769531 -0.5625 0.765625 -0.519531 0.765625 -0.5 C 0.765625 -0.414062 0.785156 -0.351562 0.828125 -0.3125 C 0.878906 -0.269531 0.953125 -0.25 1.046875 -0.25 C 1.191406 -0.25 1.351562 -0.316406 1.53125 -0.453125 C 1.550781 -0.453125 1.566406 -0.445312 1.578125 -0.4375 C 1.585938 -0.425781 1.585938 -0.414062 1.578125 -0.40625 C 1.398438 -0.238281 1.242188 -0.117188 1.109375 -0.046875 C 0.972656 0.0234375 0.84375 0.0625 0.71875 0.0625 C 0.40625 0.0625 0.25 -0.0703125 0.25 -0.34375 C 0.25 -0.40625 0.253906 -0.46875 0.265625 -0.53125 L 0.484375 -1.734375 C 0.503906 -1.796875 0.515625 -1.847656 0.515625 -1.890625 C 0.515625 -1.941406 0.5 -1.976562 0.46875 -2 C 0.4375 -2.019531 0.378906 -2.03125 0.296875 -2.03125 C 0.285156 -2.03125 0.28125 -2.039062 0.28125 -2.0625 C 0.28125 -2.101562 0.285156 -2.125 0.296875 -2.125 C 0.597656 -2.125 0.835938 -2.289062 1.015625 -2.625 C 1.023438 -2.632812 1.039062 -2.640625 1.0625 -2.640625 C 1.082031 -2.640625 1.097656 -2.632812 1.109375 -2.625 C 1.117188 -2.613281 1.125 -2.609375 1.125 -2.609375 L 1.046875 -2.140625 C 1.148438 -2.140625 1.238281 -2.140625 1.3125 -2.140625 C 1.382812 -2.148438 1.445312 -2.160156 1.5 -2.171875 C 1.601562 -2.179688 1.675781 -2.1875 1.71875 -2.1875 Z M 1.71875 -2.1875 "
           id="path60" />
      </g>
    </g>
  </g>
  <g
     fill="#ffffff"
     fill-opacity="1"
     id="g66">
    <g
       transform="translate(35.97022, 63.42538)"
       id="g65">
      <g
         id="g64">
        <path
           d="M 0.890625 0.078125 C 0.640625 0.078125 0.445312 0 0.3125 -0.15625 C 0.1875 -0.320312 0.125 -0.53125 0.125 -0.78125 C 0.125 -0.894531 0.132812 -1 0.15625 -1.09375 C 0.195312 -1.320312 0.28125 -1.523438 0.40625 -1.703125 C 0.53125 -1.878906 0.675781 -2.015625 0.84375 -2.109375 C 1.019531 -2.203125 1.207031 -2.25 1.40625 -2.25 C 1.65625 -2.25 1.847656 -2.171875 1.984375 -2.015625 C 2.117188 -1.867188 2.1875 -1.664062 2.1875 -1.40625 C 2.1875 -1.3125 2.175781 -1.207031 2.15625 -1.09375 C 2.101562 -0.84375 2.007812 -0.628906 1.875 -0.453125 C 1.75 -0.273438 1.597656 -0.140625 1.421875 -0.046875 C 1.253906 0.0351562 1.078125 0.078125 0.890625 0.078125 Z M 1.09375 -0.0625 C 1.207031 -0.0625 1.304688 -0.128906 1.390625 -0.265625 C 1.484375 -0.410156 1.550781 -0.601562 1.59375 -0.84375 C 1.625 -0.988281 1.640625 -1.140625 1.640625 -1.296875 C 1.640625 -1.535156 1.597656 -1.734375 1.515625 -1.890625 C 1.441406 -2.046875 1.34375 -2.125 1.21875 -2.125 C 1.101562 -2.125 1 -2.054688 0.90625 -1.921875 C 0.820312 -1.785156 0.757812 -1.585938 0.71875 -1.328125 C 0.6875 -1.179688 0.671875 -1.035156 0.671875 -0.890625 C 0.671875 -0.640625 0.707031 -0.4375 0.78125 -0.28125 C 0.851562 -0.132812 0.957031 -0.0625 1.09375 -0.0625 Z M 1.09375 -0.0625 "
           id="path63" />
      </g>
    </g>
  </g>
  <g
     fill="#ffffff"
     fill-opacity="1"
     id="g69">
    <g
       transform="translate(39.971037, 63.42538)"
       id="g68">
      <g
         id="g67">
        <path
           d="M 1.6875 -2.234375 C 1.78125 -2.234375 1.867188 -2.195312 1.953125 -2.125 C 2.046875 -2.050781 2.082031 -1.972656 2.0625 -1.890625 C 2.0625 -1.828125 2.035156 -1.769531 1.984375 -1.71875 C 1.941406 -1.675781 1.890625 -1.65625 1.828125 -1.65625 C 1.753906 -1.65625 1.675781 -1.6875 1.59375 -1.75 C 1.570312 -1.769531 1.546875 -1.785156 1.515625 -1.796875 C 1.492188 -1.816406 1.46875 -1.828125 1.4375 -1.828125 C 1.375 -1.828125 1.296875 -1.722656 1.203125 -1.515625 C 1.109375 -1.316406 1.019531 -1.078125 0.9375 -0.796875 C 0.851562 -0.523438 0.789062 -0.285156 0.75 -0.078125 L 0.75 -0.0625 C 0.738281 -0.03125 0.707031 -0.00390625 0.65625 0.015625 C 0.601562 0.0351562 0.53125 0.046875 0.4375 0.046875 C 0.3125 0.046875 0.25 0.03125 0.25 0 C 0.25 -0.03125 0.257812 -0.0859375 0.28125 -0.171875 C 0.300781 -0.253906 0.320312 -0.335938 0.34375 -0.421875 L 0.578125 -1.6875 C 0.578125 -1.738281 0.578125 -1.773438 0.578125 -1.796875 C 0.578125 -1.898438 0.546875 -1.953125 0.484375 -1.953125 C 0.410156 -1.953125 0.300781 -1.878906 0.15625 -1.734375 C 0.15625 -1.722656 0.148438 -1.71875 0.140625 -1.71875 C 0.128906 -1.71875 0.117188 -1.722656 0.109375 -1.734375 C 0.0976562 -1.753906 0.0976562 -1.769531 0.109375 -1.78125 C 0.242188 -1.9375 0.363281 -2.050781 0.46875 -2.125 C 0.582031 -2.195312 0.691406 -2.234375 0.796875 -2.234375 C 0.890625 -2.234375 0.957031 -2.207031 1 -2.15625 C 1.039062 -2.101562 1.0625 -2.03125 1.0625 -1.9375 C 1.0625 -1.875 1.054688 -1.8125 1.046875 -1.75 L 0.9375 -1.125 C 1.15625 -1.863281 1.40625 -2.234375 1.6875 -2.234375 Z M 1.6875 -2.234375 "
           id="path66" />
      </g>
    </g>
  </g>
  <g
     fill="#ffffff"
     fill-opacity="1"
     id="g72">
    <g
       transform="translate(43.678007, 63.42538)"
       id="g71">
      <g
         id="g70">
        <path
           d="M 0.984375 -2.828125 C 0.878906 -2.828125 0.796875 -2.851562 0.734375 -2.90625 C 0.679688 -2.96875 0.65625 -3.050781 0.65625 -3.15625 C 0.65625 -3.238281 0.679688 -3.304688 0.734375 -3.359375 C 0.796875 -3.421875 0.878906 -3.453125 0.984375 -3.453125 C 1.078125 -3.453125 1.148438 -3.421875 1.203125 -3.359375 C 1.265625 -3.304688 1.296875 -3.238281 1.296875 -3.15625 C 1.296875 -3.039062 1.265625 -2.957031 1.203125 -2.90625 C 1.148438 -2.851562 1.078125 -2.828125 0.984375 -2.828125 Z M 0.59375 0.046875 C 0.414062 0.046875 0.328125 -0.0546875 0.328125 -0.265625 C 0.328125 -0.316406 0.335938 -0.394531 0.359375 -0.5 L 0.59375 -1.6875 C 0.601562 -1.738281 0.609375 -1.78125 0.609375 -1.8125 C 0.609375 -1.863281 0.597656 -1.898438 0.578125 -1.921875 C 0.554688 -1.941406 0.53125 -1.953125 0.5 -1.953125 C 0.425781 -1.953125 0.320312 -1.878906 0.1875 -1.734375 C 0.175781 -1.722656 0.164062 -1.71875 0.15625 -1.71875 C 0.144531 -1.71875 0.132812 -1.722656 0.125 -1.734375 C 0.125 -1.753906 0.125 -1.769531 0.125 -1.78125 C 0.257812 -1.9375 0.378906 -2.050781 0.484375 -2.125 C 0.597656 -2.195312 0.707031 -2.234375 0.8125 -2.234375 C 1 -2.234375 1.09375 -2.132812 1.09375 -1.9375 C 1.09375 -1.875 1.082031 -1.8125 1.0625 -1.75 L 0.828125 -0.5 C 0.816406 -0.46875 0.8125 -0.425781 0.8125 -0.375 C 0.8125 -0.28125 0.84375 -0.234375 0.90625 -0.234375 C 0.945312 -0.234375 0.988281 -0.25 1.03125 -0.28125 C 1.082031 -0.320312 1.140625 -0.375 1.203125 -0.4375 C 1.210938 -0.445312 1.222656 -0.453125 1.234375 -0.453125 C 1.242188 -0.453125 1.25 -0.441406 1.25 -0.421875 C 1.257812 -0.410156 1.257812 -0.398438 1.25 -0.390625 C 1.125 -0.234375 1.007812 -0.117188 0.90625 -0.046875 C 0.8125 0.015625 0.707031 0.046875 0.59375 0.046875 Z M 0.59375 0.046875 "
           id="path69" />
      </g>
    </g>
  </g>
  <g
     fill="#ffffff"
     fill-opacity="1"
     id="g75">
    <g
       transform="translate(46.769028, 63.42538)"
       id="g74">
      <g
         id="g73">
        <path
           d="M 2.34375 -0.4375 C 2.351562 -0.4375 2.359375 -0.4375 2.359375 -0.4375 C 2.367188 -0.4375 2.378906 -0.429688 2.390625 -0.421875 C 2.398438 -0.410156 2.398438 -0.398438 2.390625 -0.390625 C 2.148438 -0.0976562 1.941406 0.046875 1.765625 0.046875 C 1.660156 0.046875 1.582031 0.0195312 1.53125 -0.03125 C 1.488281 -0.0820312 1.46875 -0.164062 1.46875 -0.28125 C 1.46875 -0.351562 1.476562 -0.425781 1.5 -0.5 L 1.5625 -0.890625 C 1.414062 -0.585938 1.242188 -0.347656 1.046875 -0.171875 C 0.847656 -0.00390625 0.65625 0.078125 0.46875 0.078125 C 0.351562 0.078125 0.257812 0.0390625 0.1875 -0.03125 C 0.125 -0.101562 0.09375 -0.210938 0.09375 -0.359375 C 0.09375 -0.609375 0.175781 -0.882812 0.34375 -1.1875 C 0.507812 -1.488281 0.710938 -1.738281 0.953125 -1.9375 C 1.203125 -2.144531 1.4375 -2.25 1.65625 -2.25 C 1.726562 -2.25 1.800781 -2.238281 1.875 -2.21875 C 1.945312 -2.195312 2.007812 -2.160156 2.0625 -2.109375 C 2.132812 -2.160156 2.191406 -2.222656 2.234375 -2.296875 C 2.242188 -2.304688 2.253906 -2.3125 2.265625 -2.3125 C 2.273438 -2.3125 2.285156 -2.304688 2.296875 -2.296875 C 2.304688 -2.296875 2.3125 -2.289062 2.3125 -2.28125 L 1.984375 -0.5 C 1.972656 -0.457031 1.96875 -0.414062 1.96875 -0.375 C 1.96875 -0.28125 1.992188 -0.234375 2.046875 -0.234375 C 2.117188 -0.234375 2.21875 -0.300781 2.34375 -0.4375 Z M 0.828125 -0.34375 C 0.941406 -0.34375 1.054688 -0.398438 1.171875 -0.515625 C 1.296875 -0.640625 1.398438 -0.785156 1.484375 -0.953125 C 1.578125 -1.117188 1.632812 -1.28125 1.65625 -1.4375 C 1.675781 -1.5 1.6875 -1.550781 1.6875 -1.59375 C 1.6875 -1.71875 1.65625 -1.8125 1.59375 -1.875 C 1.539062 -1.945312 1.46875 -1.984375 1.375 -1.984375 C 1.195312 -1.984375 1.039062 -1.890625 0.90625 -1.703125 C 0.769531 -1.515625 0.675781 -1.269531 0.625 -0.96875 C 0.601562 -0.851562 0.59375 -0.765625 0.59375 -0.703125 C 0.59375 -0.578125 0.613281 -0.484375 0.65625 -0.421875 C 0.695312 -0.367188 0.753906 -0.34375 0.828125 -0.34375 Z M 0.828125 -0.34375 "
           id="path72" />
      </g>
    </g>
  </g>
</svg>
