<?xml version="1.0" encoding="UTF-8" standalone="no"?>
<svg
   width="77"
   zoomAndPan="magnify"
   viewBox="0 0 57.75 66"
   height="88"
   preserveAspectRatio="xMidYMid meet"
   version="1.0"
   id="svg75"
   sodipodi:docname="Vertical branco.svg"
   inkscape:export-filename="Vertical branco.png"
   inkscape:export-xdpi="3168"
   inkscape:export-ydpi="3168"
   inkscape:version="1.3.2 (091e20e, 2023-11-25, custom)"
   xmlns:inkscape="http://www.inkscape.org/namespaces/inkscape"
   xmlns:sodipodi="http://sodipodi.sourceforge.net/DTD/sodipodi-0.dtd"
   xmlns="http://www.w3.org/2000/svg"
   xmlns:svg="http://www.w3.org/2000/svg">
  <sodipodi:namedview
     id="namedview75"
     pagecolor="#ffffff"
     bordercolor="#000000"
     borderopacity="0.25"
     inkscape:showpageshadow="2"
     inkscape:pageopacity="0.0"
     inkscape:pagecheckerboard="0"
     inkscape:deskcolor="#d1d1d1"
     inkscape:zoom="8.9318182"
     inkscape:cx="38.513995"
     inkscape:cy="44"
     inkscape:window-width="1920"
     inkscape:window-height="995"
     inkscape:window-x="-9"
     inkscape:window-y="-9"
     inkscape:window-maximized="1"
     inkscape:current-layer="svg75" />
  <defs
     id="defs7">
    <g
       id="g1" />
    <clipPath
       id="3d6fe28256">
      <path
         d="M 0 0.140625 L 57.5 0.140625 L 57.5 65.855469 L 0 65.855469 Z M 0 0.140625 "
         clip-rule="nonzero"
         id="path1" />
    </clipPath>
    <clipPath
       id="5c9f232fc0">
      <path
         d="M 18 19 L 34 19 L 34 41 L 18 41 Z M 18 19 "
         clip-rule="nonzero"
         id="path2" />
    </clipPath>
    <clipPath
       id="5f3675ac2a">
      <path
         d="M 28.90625 19.460938 L 33.679688 22.339844 L 22.890625 40.214844 L 18.117188 37.335938 Z M 28.90625 19.460938 "
         clip-rule="nonzero"
         id="path3" />
    </clipPath>
    <clipPath
       id="4faf2e72c6">
      <path
         d="M 18 22 L 30 22 L 30 33 L 18 33 Z M 18 22 "
         clip-rule="nonzero"
         id="path4" />
    </clipPath>
    <clipPath
       id="9ed6d772d9">
      <path
         d="M 22.617188 22.304688 L 29.121094 26.230469 L 25.121094 32.855469 L 18.617188 28.929688 Z M 22.617188 22.304688 "
         clip-rule="nonzero"
         id="path5" />
    </clipPath>
    <clipPath
       id="a339851d35">
      <path
         d="M 26 23 L 37 23 L 37 33 L 26 33 Z M 26 23 "
         clip-rule="nonzero"
         id="path6" />
    </clipPath>
    <clipPath
       id="310ce0d0f4">
      <path
         d="M 29.796875 23.011719 L 36.300781 26.9375 L 32.726562 32.855469 L 26.222656 28.929688 Z M 29.796875 23.011719 "
         clip-rule="nonzero"
         id="path7" />
    </clipPath>
  </defs>
  <g
     clip-path="url(#3d6fe28256)"
     id="g9">
    <path
       fill="#ffffff"
       d="M 0 0.140625 L 57.5 0.140625 L 57.5 65.859375 L 0 65.859375 Z M 0 0.140625 "
       fill-opacity="1"
       fill-rule="nonzero"
       id="path8" />
    <path
       fill="#ffffff"
       d="M 0 0.140625 L 57.5 0.140625 L 57.5 65.859375 L 0 65.859375 Z M 0 0.140625 "
       fill-opacity="1"
       fill-rule="nonzero"
       id="path9" />
  </g>
  <g
     fill="#000080"
     fill-opacity="1"
     id="g12">
    <g
       transform="translate(11.196427, 29.468881)"
       id="g11">
      <g
         id="g10">
        <path
           d="M 21.46875 -0.375 C 21.53125 -0.375 21.5625 -0.3125 21.5625 -0.1875 C 21.5625 -0.0625 21.53125 0 21.46875 0 L 17.78125 0 C 17.257812 0 16.238281 -0.882812 14.71875 -2.65625 C 13.207031 -4.425781 11.40625 -6.851562 9.3125 -9.9375 C 8.570312 -9.789062 7.90625 -9.71875 7.3125 -9.71875 C 7.21875 -9.71875 6.757812 -9.75 5.9375 -9.8125 L 5.9375 -2.578125 C 5.9375 -1.921875 6.003906 -1.441406 6.140625 -1.140625 C 6.285156 -0.847656 6.546875 -0.644531 6.921875 -0.53125 C 7.304688 -0.425781 7.921875 -0.375 8.765625 -0.375 C 8.828125 -0.375 8.859375 -0.3125 8.859375 -0.1875 C 8.859375 -0.0625 8.828125 0 8.765625 0 C 8.128906 0 7.625 -0.0078125 7.25 -0.03125 L 5.078125 -0.0625 L 2.984375 -0.03125 C 2.609375 -0.0078125 2.078125 0 1.390625 0 C 1.347656 0 1.328125 -0.0625 1.328125 -0.1875 C 1.328125 -0.3125 1.347656 -0.375 1.390625 -0.375 C 2.242188 -0.375 2.863281 -0.425781 3.25 -0.53125 C 3.644531 -0.644531 3.914062 -0.851562 4.0625 -1.15625 C 4.207031 -1.46875 4.28125 -1.941406 4.28125 -2.578125 L 4.28125 -17.28125 C 4.28125 -17.914062 4.210938 -18.378906 4.078125 -18.671875 C 3.941406 -18.972656 3.675781 -19.179688 3.28125 -19.296875 C 2.894531 -19.410156 2.289062 -19.46875 1.46875 -19.46875 C 1.394531 -19.46875 1.359375 -19.53125 1.359375 -19.65625 C 1.359375 -19.789062 1.394531 -19.859375 1.46875 -19.859375 L 2.984375 -19.828125 C 3.828125 -19.785156 4.523438 -19.765625 5.078125 -19.765625 C 5.546875 -19.765625 5.984375 -19.773438 6.390625 -19.796875 C 6.804688 -19.816406 7.164062 -19.835938 7.46875 -19.859375 C 8.226562 -19.921875 8.90625 -19.953125 9.5 -19.953125 C 11.082031 -19.953125 12.3125 -19.5625 13.1875 -18.78125 C 14.070312 -18.007812 14.515625 -16.988281 14.515625 -15.71875 C 14.515625 -14.601562 14.175781 -13.582031 13.5 -12.65625 C 12.820312 -11.738281 11.921875 -11.015625 10.796875 -10.484375 C 12.617188 -7.898438 14.144531 -5.882812 15.375 -4.4375 C 16.601562 -3 17.691406 -1.960938 18.640625 -1.328125 C 19.597656 -0.691406 20.539062 -0.375 21.46875 -0.375 Z M 5.9375 -10.546875 C 6.53125 -10.484375 7.164062 -10.453125 7.84375 -10.453125 C 9.601562 -10.453125 10.859375 -10.816406 11.609375 -11.546875 C 12.359375 -12.273438 12.734375 -13.378906 12.734375 -14.859375 C 12.734375 -16.492188 12.335938 -17.679688 11.546875 -18.421875 C 10.753906 -19.160156 9.601562 -19.53125 8.09375 -19.53125 C 7.289062 -19.53125 6.726562 -19.378906 6.40625 -19.078125 C 6.09375 -18.785156 5.9375 -18.164062 5.9375 -17.21875 Z M 5.9375 -10.546875 "
           id="path10" />
      </g>
    </g>
  </g>
  <g
     fill="#000080"
     fill-opacity="1"
     id="g15">
    <g
       transform="translate(22.082311, 44.981592)"
       id="g14">
      <g
         id="g13">
        <path
           d="M 22.203125 -19.859375 C 22.265625 -19.859375 22.296875 -19.789062 22.296875 -19.65625 C 22.296875 -19.53125 22.265625 -19.46875 22.203125 -19.46875 C 21.296875 -19.46875 20.65625 -19.242188 20.28125 -18.796875 C 19.90625 -18.359375 19.71875 -17.597656 19.71875 -16.515625 L 19.71875 0.34375 C 19.71875 0.382812 19.664062 0.414062 19.5625 0.4375 C 19.457031 0.457031 19.382812 0.445312 19.34375 0.40625 L 4.984375 -17.25 L 4.453125 -17.859375 L 4.453125 -3.296875 C 4.453125 -2.222656 4.628906 -1.46875 4.984375 -1.03125 C 5.347656 -0.59375 5.972656 -0.375 6.859375 -0.375 C 6.921875 -0.375 6.953125 -0.3125 6.953125 -0.1875 C 6.953125 -0.0625 6.921875 0 6.859375 0 C 6.347656 0 5.957031 -0.0078125 5.6875 -0.03125 L 4.15625 -0.0625 L 2.609375 -0.03125 C 2.328125 -0.0078125 1.910156 0 1.359375 0 C 1.316406 0 1.296875 -0.0625 1.296875 -0.1875 C 1.296875 -0.3125 1.316406 -0.375 1.359375 -0.375 C 2.273438 -0.375 2.898438 -0.585938 3.234375 -1.015625 C 3.578125 -1.441406 3.75 -2.203125 3.75 -3.296875 L 3.75 -18.515625 C 3.007812 -19.148438 2.25 -19.46875 1.46875 -19.46875 C 1.394531 -19.46875 1.359375 -19.53125 1.359375 -19.65625 C 1.359375 -19.789062 1.394531 -19.859375 1.46875 -19.859375 L 2.609375 -19.828125 C 2.835938 -19.804688 3.164062 -19.796875 3.59375 -19.796875 C 3.945312 -19.796875 4.238281 -19.804688 4.46875 -19.828125 C 4.707031 -19.847656 4.890625 -19.859375 5.015625 -19.859375 C 5.160156 -19.859375 5.28125 -19.816406 5.375 -19.734375 C 5.476562 -19.660156 5.59375 -19.507812 5.71875 -19.28125 C 5.945312 -18.894531 6.203125 -18.535156 6.484375 -18.203125 L 19.03125 -2.609375 L 19.03125 -16.515625 C 19.03125 -17.597656 18.859375 -18.359375 18.515625 -18.796875 C 18.179688 -19.242188 17.566406 -19.46875 16.671875 -19.46875 C 16.628906 -19.46875 16.609375 -19.53125 16.609375 -19.65625 C 16.609375 -19.789062 16.628906 -19.859375 16.671875 -19.859375 L 17.890625 -19.828125 C 18.523438 -19.785156 19.03125 -19.765625 19.40625 -19.765625 C 19.769531 -19.765625 20.289062 -19.785156 20.96875 -19.828125 Z M 22.203125 -19.859375 "
           id="path12" />
      </g>
    </g>
  </g>
  <g
     clip-path="url(#5c9f232fc0)"
     id="g17">
    <g
       clip-path="url(#5f3675ac2a)"
       id="g16">
      <path
         fill="#ffffff"
         d="M 28.90625 19.460938 L 33.679688 22.339844 L 22.886719 40.222656 L 18.113281 37.34375 Z M 28.90625 19.460938 "
         fill-opacity="1"
         fill-rule="nonzero"
         id="path15" />
    </g>
  </g>
  <g
     clip-path="url(#4faf2e72c6)"
     id="g19">
    <g
       clip-path="url(#9ed6d772d9)"
       id="g18">
      <path
         fill="#ffffff"
         d="M 22.617188 22.304688 L 29.121094 26.230469 L 25.117188 32.859375 L 18.613281 28.9375 Z M 22.617188 22.304688 "
         fill-opacity="1"
         fill-rule="nonzero"
         id="path17" />
    </g>
  </g>
  <g
     clip-path="url(#a339851d35)"
     id="g21">
    <g
       clip-path="url(#310ce0d0f4)"
       id="g20">
      <path
         fill="#ffffff"
         d="M 29.796875 23.011719 L 36.292969 26.933594 L 32.722656 32.851562 L 26.222656 28.929688 Z M 29.796875 23.011719 "
         fill-opacity="1"
         fill-rule="nonzero"
         id="path19" />
    </g>
  </g>
  <path
     stroke-linecap="butt"
     transform="matrix(0.429195, -0.611108, 0.611108, 0.429195, 16.078724, 42.537673)"
     fill="none"
     stroke-linejoin="miter"
     d="M -0.00291998 0.499653 L 46.408264 0.497221 "
     stroke="#000080"
     stroke-width="1"
     stroke-opacity="1"
     stroke-miterlimit="4"
     id="path21"
     style="stroke-width:1.00432898;stroke-dasharray:none" />
  <g
     fill="#000080"
     fill-opacity="1"
     id="g24">
    <g
       transform="translate(9.970007, 56.102578)"
       id="g23">
      <g
         id="g22">
        <path
           d="M 4.03125 0 L 2.921875 -1.546875 C 2.753906 -1.523438 2.601562 -1.515625 2.46875 -1.515625 L 1.140625 -1.515625 L 1.140625 0 L 0.8125 0 L 0.8125 -4.640625 L 2.46875 -4.640625 C 3.050781 -4.640625 3.507812 -4.5 3.84375 -4.21875 C 4.175781 -3.945312 4.34375 -3.566406 4.34375 -3.078125 C 4.34375 -2.710938 4.25 -2.40625 4.0625 -2.15625 C 3.875 -1.90625 3.601562 -1.726562 3.25 -1.625 L 4.40625 0 Z M 2.46875 -1.8125 C 2.96875 -1.8125 3.347656 -1.921875 3.609375 -2.140625 C 3.867188 -2.359375 4 -2.671875 4 -3.078125 C 4 -3.472656 3.867188 -3.78125 3.609375 -4 C 3.347656 -4.21875 2.96875 -4.328125 2.46875 -4.328125 L 1.140625 -4.328125 L 1.140625 -1.8125 Z M 2.46875 -1.8125 "
           id="path22" />
      </g>
    </g>
  </g>
  <g
     fill="#000080"
     fill-opacity="1"
     id="g27">
    <g
       transform="translate(16.070563, 56.102578)"
       id="g26">
      <g
         id="g25" />
    </g>
  </g>
  <g
     fill="#000080"
     fill-opacity="1"
     id="g30">
    <g
       transform="translate(19.100939, 56.102578)"
       id="g29">
      <g
         id="g28">
        <path
           d="M 4.578125 -4.640625 L 4.578125 0 L 4.3125 0 L 1.140625 -4.03125 L 1.140625 0 L 0.8125 0 L 0.8125 -4.640625 L 1.09375 -4.640625 L 4.25 -0.609375 L 4.25 -4.640625 Z M 4.578125 -4.640625 "
           id="path27" />
      </g>
    </g>
  </g>
  <g
     fill="#000080"
     fill-opacity="1"
     id="g33">
    <g
       transform="translate(25.824812, 56.102578)"
       id="g32">
      <g
         id="g31">
        <path
           d="M 3.671875 -1.3125 L 0.984375 -1.3125 L 0.390625 0 L 0.03125 0 L 2.171875 -4.640625 L 2.5 -4.640625 L 4.640625 0 L 4.265625 0 Z M 3.546875 -1.59375 L 2.328125 -4.265625 L 1.125 -1.59375 Z M 3.546875 -1.59375 "
           id="path30" />
      </g>
    </g>
  </g>
  <g
     fill="#000080"
     fill-opacity="1"
     id="g36">
    <g
       transform="translate(31.825898, 56.102578)"
       id="g35">
      <g
         id="g34">
        <path
           d="M 4.515625 -4.640625 L 2.4375 0 L 2.109375 0 L 0.046875 -4.640625 L 0.40625 -4.640625 L 2.28125 -0.4375 L 4.15625 -4.640625 Z M 4.515625 -4.640625 "
           id="path33" />
      </g>
    </g>
  </g>
  <g
     fill="#000080"
     fill-opacity="1"
     id="g39">
    <g
       transform="translate(37.707633, 56.102578)"
       id="g38">
      <g
         id="g37">
        <path
           d="M 4.015625 -0.3125 L 4.015625 0 L 0.8125 0 L 0.8125 -4.640625 L 3.90625 -4.640625 L 3.90625 -4.328125 L 1.140625 -4.328125 L 1.140625 -2.5 L 3.625 -2.5 L 3.625 -2.203125 L 1.140625 -2.203125 L 1.140625 -0.3125 Z M 4.015625 -0.3125 "
           id="path36" />
      </g>
    </g>
  </g>
  <g
     fill="#000080"
     fill-opacity="1"
     id="g42">
    <g
       transform="translate(43.470009, 56.102578)"
       id="g41">
      <g
         id="g40">
        <path
           d="M 2.03125 0.03125 C 1.6875 0.03125 1.359375 -0.0234375 1.046875 -0.140625 C 0.742188 -0.253906 0.507812 -0.40625 0.34375 -0.59375 L 0.484375 -0.84375 C 0.648438 -0.675781 0.867188 -0.535156 1.140625 -0.421875 C 1.421875 -0.316406 1.710938 -0.265625 2.015625 -0.265625 C 2.460938 -0.265625 2.796875 -0.347656 3.015625 -0.515625 C 3.242188 -0.679688 3.359375 -0.898438 3.359375 -1.171875 C 3.359375 -1.378906 3.296875 -1.546875 3.171875 -1.671875 C 3.054688 -1.796875 2.910156 -1.890625 2.734375 -1.953125 C 2.554688 -2.015625 2.316406 -2.082031 2.015625 -2.15625 C 1.679688 -2.238281 1.410156 -2.320312 1.203125 -2.40625 C 0.992188 -2.488281 0.816406 -2.609375 0.671875 -2.765625 C 0.535156 -2.929688 0.46875 -3.15625 0.46875 -3.4375 C 0.46875 -3.664062 0.523438 -3.875 0.640625 -4.0625 C 0.765625 -4.25 0.945312 -4.394531 1.1875 -4.5 C 1.4375 -4.613281 1.742188 -4.671875 2.109375 -4.671875 C 2.359375 -4.671875 2.609375 -4.632812 2.859375 -4.5625 C 3.109375 -4.488281 3.320312 -4.382812 3.5 -4.25 L 3.375 -3.984375 C 3.1875 -4.109375 2.984375 -4.203125 2.765625 -4.265625 C 2.546875 -4.335938 2.328125 -4.375 2.109375 -4.375 C 1.679688 -4.375 1.351562 -4.285156 1.125 -4.109375 C 0.90625 -3.941406 0.796875 -3.71875 0.796875 -3.4375 C 0.796875 -3.238281 0.851562 -3.078125 0.96875 -2.953125 C 1.09375 -2.828125 1.242188 -2.726562 1.421875 -2.65625 C 1.597656 -2.59375 1.835938 -2.523438 2.140625 -2.453125 C 2.484375 -2.367188 2.753906 -2.285156 2.953125 -2.203125 C 3.160156 -2.128906 3.335938 -2.007812 3.484375 -1.84375 C 3.628906 -1.6875 3.703125 -1.46875 3.703125 -1.1875 C 3.703125 -0.96875 3.640625 -0.765625 3.515625 -0.578125 C 3.390625 -0.390625 3.203125 -0.238281 2.953125 -0.125 C 2.703125 -0.0195312 2.394531 0.03125 2.03125 0.03125 Z M 2.03125 0.03125 "
           id="path39" />
      </g>
    </g>
  </g>
  <g
     fill="#000080"
     fill-opacity="1"
     id="g45">
    <g
       transform="translate(10.702535, 63.211191)"
       id="g44">
      <g
         id="g43">
        <path
           d="M 1.59375 0.0625 C 1.132812 0.0625 0.796875 -0.0546875 0.578125 -0.296875 C 0.367188 -0.535156 0.265625 -0.835938 0.265625 -1.203125 C 0.265625 -1.304688 0.273438 -1.425781 0.296875 -1.5625 C 0.359375 -1.882812 0.484375 -2.164062 0.671875 -2.40625 C 0.859375 -2.65625 1.082031 -2.84375 1.34375 -2.96875 C 1.613281 -3.09375 1.890625 -3.15625 2.171875 -3.15625 C 2.296875 -3.15625 2.425781 -3.140625 2.5625 -3.109375 C 2.707031 -3.085938 2.820312 -3.054688 2.90625 -3.015625 C 2.925781 -3.003906 2.9375 -2.988281 2.9375 -2.96875 C 2.945312 -2.957031 2.953125 -2.9375 2.953125 -2.90625 L 2.859375 -2.234375 C 2.859375 -2.222656 2.847656 -2.21875 2.828125 -2.21875 C 2.816406 -2.21875 2.8125 -2.222656 2.8125 -2.234375 C 2.757812 -2.484375 2.65625 -2.675781 2.5 -2.8125 C 2.351562 -2.957031 2.175781 -3.03125 1.96875 -3.03125 C 1.675781 -3.03125 1.429688 -2.910156 1.234375 -2.671875 C 1.035156 -2.441406 0.910156 -2.125 0.859375 -1.71875 C 0.835938 -1.582031 0.828125 -1.445312 0.828125 -1.3125 C 0.828125 -1.070312 0.859375 -0.851562 0.921875 -0.65625 C 0.984375 -0.46875 1.070312 -0.316406 1.1875 -0.203125 C 1.3125 -0.0976562 1.457031 -0.046875 1.625 -0.046875 C 1.789062 -0.046875 1.957031 -0.101562 2.125 -0.21875 C 2.300781 -0.34375 2.484375 -0.535156 2.671875 -0.796875 C 2.671875 -0.804688 2.675781 -0.8125 2.6875 -0.8125 C 2.695312 -0.8125 2.707031 -0.804688 2.71875 -0.796875 C 2.726562 -0.796875 2.734375 -0.789062 2.734375 -0.78125 L 2.59375 -0.203125 C 2.582031 -0.171875 2.570312 -0.144531 2.5625 -0.125 C 2.550781 -0.113281 2.53125 -0.101562 2.5 -0.09375 C 2.207031 0.0078125 1.90625 0.0625 1.59375 0.0625 Z M 1.59375 0.0625 "
           id="path42" />
      </g>
    </g>
  </g>
  <g
     fill="#000080"
     fill-opacity="1"
     id="g48">
    <g
       transform="translate(15.11269, 63.211191)"
       id="g47">
      <g
         id="g46">
        <path
           d="M 0.78125 0.0625 C 0.5625 0.0625 0.394531 -0.00390625 0.28125 -0.140625 C 0.164062 -0.285156 0.109375 -0.46875 0.109375 -0.6875 C 0.109375 -0.789062 0.117188 -0.878906 0.140625 -0.953125 C 0.171875 -1.148438 0.238281 -1.328125 0.34375 -1.484375 C 0.457031 -1.640625 0.585938 -1.757812 0.734375 -1.84375 C 0.890625 -1.9375 1.054688 -1.984375 1.234375 -1.984375 C 1.453125 -1.984375 1.617188 -1.914062 1.734375 -1.78125 C 1.859375 -1.644531 1.921875 -1.460938 1.921875 -1.234375 C 1.921875 -1.148438 1.910156 -1.054688 1.890625 -0.953125 C 1.847656 -0.734375 1.769531 -0.546875 1.65625 -0.390625 C 1.539062 -0.242188 1.40625 -0.128906 1.25 -0.046875 C 1.101562 0.0234375 0.945312 0.0625 0.78125 0.0625 Z M 0.953125 -0.046875 C 1.054688 -0.046875 1.144531 -0.109375 1.21875 -0.234375 C 1.300781 -0.359375 1.363281 -0.523438 1.40625 -0.734375 C 1.425781 -0.867188 1.4375 -1.003906 1.4375 -1.140625 C 1.4375 -1.347656 1.398438 -1.519531 1.328125 -1.65625 C 1.265625 -1.789062 1.179688 -1.859375 1.078125 -1.859375 C 0.972656 -1.859375 0.878906 -1.800781 0.796875 -1.6875 C 0.722656 -1.570312 0.664062 -1.398438 0.625 -1.171875 C 0.601562 -1.046875 0.59375 -0.914062 0.59375 -0.78125 C 0.59375 -0.5625 0.625 -0.382812 0.6875 -0.25 C 0.75 -0.113281 0.835938 -0.046875 0.953125 -0.046875 Z M 0.953125 -0.046875 "
           id="path45" />
      </g>
    </g>
  </g>
  <g
     fill="#000080"
     fill-opacity="1"
     id="g51">
    <g
       transform="translate(18.628897, 63.211191)"
       id="g50">
      <g
         id="g49">
        <path
           d="M 2.21875 -0.375 C 2.21875 -0.382812 2.222656 -0.390625 2.234375 -0.390625 C 2.242188 -0.390625 2.25 -0.382812 2.25 -0.375 C 2.257812 -0.363281 2.257812 -0.351562 2.25 -0.34375 C 2.144531 -0.207031 2.046875 -0.109375 1.953125 -0.046875 C 1.867188 0.015625 1.78125 0.046875 1.6875 0.046875 C 1.53125 0.046875 1.453125 -0.046875 1.453125 -0.234375 C 1.453125 -0.285156 1.457031 -0.351562 1.46875 -0.4375 L 1.609375 -1.234375 C 1.628906 -1.328125 1.640625 -1.398438 1.640625 -1.453125 C 1.640625 -1.617188 1.585938 -1.703125 1.484375 -1.703125 C 1.390625 -1.703125 1.289062 -1.640625 1.1875 -1.515625 C 1.09375 -1.398438 1 -1.222656 0.90625 -0.984375 C 0.820312 -0.753906 0.75 -0.476562 0.6875 -0.15625 L 0.671875 -0.0625 C 0.660156 0.0078125 0.566406 0.046875 0.390625 0.046875 C 0.285156 0.046875 0.234375 0.03125 0.234375 0 L 0.25 -0.109375 C 0.28125 -0.265625 0.300781 -0.351562 0.3125 -0.375 L 0.515625 -1.46875 C 0.515625 -1.5 0.515625 -1.535156 0.515625 -1.578125 C 0.515625 -1.671875 0.488281 -1.71875 0.4375 -1.71875 C 0.363281 -1.71875 0.269531 -1.648438 0.15625 -1.515625 C 0.144531 -1.515625 0.140625 -1.515625 0.140625 -1.515625 C 0.128906 -1.515625 0.117188 -1.519531 0.109375 -1.53125 C 0.0976562 -1.539062 0.0976562 -1.550781 0.109375 -1.5625 C 0.222656 -1.707031 0.328125 -1.8125 0.421875 -1.875 C 0.523438 -1.9375 0.625 -1.96875 0.71875 -1.96875 C 0.875 -1.96875 0.953125 -1.878906 0.953125 -1.703125 C 0.953125 -1.648438 0.945312 -1.59375 0.9375 -1.53125 L 0.859375 -1.078125 C 0.972656 -1.367188 1.101562 -1.59375 1.25 -1.75 C 1.40625 -1.90625 1.566406 -1.984375 1.734375 -1.984375 C 1.960938 -1.984375 2.078125 -1.84375 2.078125 -1.5625 C 2.078125 -1.5 2.066406 -1.421875 2.046875 -1.328125 L 1.890625 -0.4375 C 1.878906 -0.394531 1.875 -0.359375 1.875 -0.328125 C 1.875 -0.242188 1.898438 -0.203125 1.953125 -0.203125 C 1.984375 -0.203125 2.019531 -0.21875 2.0625 -0.25 C 2.101562 -0.28125 2.15625 -0.320312 2.21875 -0.375 Z M 2.21875 -0.375 "
           id="path48" />
      </g>
    </g>
  </g>
  <g
     fill="#000080"
     fill-opacity="1"
     id="g54">
    <g
       transform="translate(22.477852, 63.211191)"
       id="g53">
      <g
         id="g52">
        <path
           d="M 0.53125 0.046875 C 0.394531 0.046875 0.273438 0.015625 0.171875 -0.046875 C 0.078125 -0.109375 0.03125 -0.179688 0.03125 -0.265625 C 0.03125 -0.335938 0.0507812 -0.394531 0.09375 -0.4375 C 0.132812 -0.476562 0.1875 -0.5 0.25 -0.5 C 0.300781 -0.5 0.34375 -0.484375 0.375 -0.453125 C 0.414062 -0.429688 0.457031 -0.382812 0.5 -0.3125 C 0.539062 -0.25 0.578125 -0.195312 0.609375 -0.15625 C 0.648438 -0.125 0.707031 -0.109375 0.78125 -0.109375 C 0.832031 -0.109375 0.867188 -0.125 0.890625 -0.15625 C 0.921875 -0.1875 0.941406 -0.238281 0.953125 -0.3125 C 0.960938 -0.320312 0.96875 -0.34375 0.96875 -0.375 C 0.96875 -0.46875 0.9375 -0.546875 0.875 -0.609375 C 0.820312 -0.679688 0.734375 -0.765625 0.609375 -0.859375 C 0.492188 -0.960938 0.40625 -1.050781 0.34375 -1.125 C 0.289062 -1.195312 0.265625 -1.28125 0.265625 -1.375 C 0.265625 -1.394531 0.265625 -1.425781 0.265625 -1.46875 C 0.285156 -1.550781 0.328125 -1.628906 0.390625 -1.703125 C 0.460938 -1.773438 0.550781 -1.835938 0.65625 -1.890625 C 0.769531 -1.941406 0.890625 -1.96875 1.015625 -1.96875 C 1.171875 -1.96875 1.289062 -1.941406 1.375 -1.890625 C 1.46875 -1.835938 1.507812 -1.765625 1.5 -1.671875 C 1.488281 -1.609375 1.457031 -1.554688 1.40625 -1.515625 C 1.363281 -1.484375 1.320312 -1.46875 1.28125 -1.46875 C 1.207031 -1.46875 1.15625 -1.484375 1.125 -1.515625 C 1.09375 -1.546875 1.0625 -1.59375 1.03125 -1.65625 C 1 -1.707031 0.96875 -1.75 0.9375 -1.78125 C 0.914062 -1.8125 0.867188 -1.828125 0.796875 -1.828125 C 0.742188 -1.828125 0.703125 -1.8125 0.671875 -1.78125 C 0.640625 -1.75 0.625 -1.710938 0.625 -1.671875 C 0.613281 -1.660156 0.609375 -1.640625 0.609375 -1.609375 C 0.609375 -1.523438 0.632812 -1.445312 0.6875 -1.375 C 0.75 -1.3125 0.835938 -1.234375 0.953125 -1.140625 C 1.078125 -1.046875 1.171875 -0.957031 1.234375 -0.875 C 1.296875 -0.800781 1.328125 -0.71875 1.328125 -0.625 C 1.328125 -0.601562 1.320312 -0.570312 1.3125 -0.53125 C 1.300781 -0.445312 1.257812 -0.359375 1.1875 -0.265625 C 1.113281 -0.171875 1.019531 -0.09375 0.90625 -0.03125 C 0.789062 0.0195312 0.664062 0.046875 0.53125 0.046875 Z M 0.53125 0.046875 "
           id="path51" />
      </g>
    </g>
  </g>
  <g
     fill="#000080"
     fill-opacity="1"
     id="g57">
    <g
       transform="translate(25.537145, 63.211191)"
       id="g56">
      <g
         id="g55">
        <path
           d="M 2.21875 -0.390625 C 2.21875 -0.398438 2.222656 -0.40625 2.234375 -0.40625 C 2.242188 -0.40625 2.25 -0.398438 2.25 -0.390625 C 2.257812 -0.378906 2.257812 -0.367188 2.25 -0.359375 C 2.132812 -0.210938 2.03125 -0.109375 1.9375 -0.046875 C 1.84375 0.015625 1.75 0.046875 1.65625 0.046875 C 1.5 0.046875 1.421875 -0.0390625 1.421875 -0.21875 C 1.421875 -0.269531 1.425781 -0.320312 1.4375 -0.375 L 1.515625 -0.828125 C 1.398438 -0.546875 1.265625 -0.328125 1.109375 -0.171875 C 0.960938 -0.015625 0.800781 0.0625 0.625 0.0625 C 0.394531 0.0625 0.28125 -0.0703125 0.28125 -0.34375 C 0.28125 -0.425781 0.289062 -0.507812 0.3125 -0.59375 L 0.484375 -1.46875 C 0.492188 -1.519531 0.5 -1.5625 0.5 -1.59375 C 0.5 -1.664062 0.472656 -1.703125 0.421875 -1.703125 C 0.390625 -1.703125 0.351562 -1.6875 0.3125 -1.65625 C 0.28125 -1.632812 0.226562 -1.59375 0.15625 -1.53125 C 0.15625 -1.53125 0.148438 -1.53125 0.140625 -1.53125 C 0.128906 -1.53125 0.117188 -1.535156 0.109375 -1.546875 C 0.109375 -1.554688 0.113281 -1.566406 0.125 -1.578125 C 0.238281 -1.710938 0.335938 -1.8125 0.421875 -1.875 C 0.503906 -1.9375 0.59375 -1.96875 0.6875 -1.96875 C 0.84375 -1.96875 0.921875 -1.867188 0.921875 -1.671875 C 0.921875 -1.628906 0.914062 -1.5625 0.90625 -1.46875 L 0.75 -0.6875 C 0.726562 -0.613281 0.71875 -0.539062 0.71875 -0.46875 C 0.71875 -0.300781 0.773438 -0.21875 0.890625 -0.21875 C 0.984375 -0.21875 1.078125 -0.273438 1.171875 -0.390625 C 1.273438 -0.515625 1.367188 -0.691406 1.453125 -0.921875 C 1.535156 -1.160156 1.609375 -1.441406 1.671875 -1.765625 L 1.6875 -1.859375 C 1.707031 -1.921875 1.800781 -1.953125 1.96875 -1.953125 C 2.019531 -1.953125 2.054688 -1.945312 2.078125 -1.9375 C 2.109375 -1.9375 2.125 -1.929688 2.125 -1.921875 L 2.109375 -1.8125 C 2.078125 -1.65625 2.0625 -1.566406 2.0625 -1.546875 L 1.859375 -0.4375 C 1.847656 -0.40625 1.84375 -0.367188 1.84375 -0.328125 C 1.84375 -0.242188 1.867188 -0.203125 1.921875 -0.203125 C 1.992188 -0.203125 2.09375 -0.265625 2.21875 -0.390625 Z M 2.21875 -0.390625 "
           id="path54" />
      </g>
    </g>
  </g>
  <g
     fill="#000080"
     fill-opacity="1"
     id="g60">
    <g
       transform="translate(29.391062, 63.211191)"
       id="g59">
      <g
         id="g58">
        <path
           d="M 0.46875 0.046875 C 0.3125 0.046875 0.234375 -0.046875 0.234375 -0.234375 C 0.234375 -0.304688 0.238281 -0.375 0.25 -0.4375 L 0.703125 -2.921875 C 0.710938 -2.992188 0.71875 -3.050781 0.71875 -3.09375 C 0.71875 -3.1875 0.6875 -3.234375 0.625 -3.234375 C 0.582031 -3.234375 0.515625 -3.210938 0.421875 -3.171875 L 0.40625 -3.171875 C 0.394531 -3.171875 0.382812 -3.175781 0.375 -3.1875 C 0.375 -3.207031 0.378906 -3.21875 0.390625 -3.21875 L 1.171875 -3.609375 C 1.191406 -3.609375 1.207031 -3.601562 1.21875 -3.59375 C 1.226562 -3.582031 1.234375 -3.570312 1.234375 -3.5625 L 0.671875 -0.4375 C 0.660156 -0.394531 0.65625 -0.351562 0.65625 -0.3125 C 0.65625 -0.238281 0.679688 -0.203125 0.734375 -0.203125 C 0.765625 -0.203125 0.800781 -0.21875 0.84375 -0.25 C 0.882812 -0.28125 0.9375 -0.320312 1 -0.375 C 1 -0.382812 1.003906 -0.390625 1.015625 -0.390625 C 1.023438 -0.390625 1.03125 -0.382812 1.03125 -0.375 C 1.039062 -0.363281 1.039062 -0.351562 1.03125 -0.34375 C 0.914062 -0.207031 0.816406 -0.109375 0.734375 -0.046875 C 0.648438 0.015625 0.5625 0.046875 0.46875 0.046875 Z M 0.46875 0.046875 "
           id="path57" />
      </g>
    </g>
  </g>
  <g
     fill="#000080"
     fill-opacity="1"
     id="g63">
    <g
       transform="translate(32.107673, 63.211191)"
       id="g62">
      <g
         id="g61">
        <path
           d="M 1.515625 -1.921875 C 1.535156 -1.921875 1.546875 -1.90625 1.546875 -1.875 C 1.546875 -1.84375 1.523438 -1.800781 1.484375 -1.75 C 1.453125 -1.695312 1.414062 -1.671875 1.375 -1.671875 C 1.363281 -1.671875 1.3125 -1.675781 1.21875 -1.6875 C 1.125 -1.707031 1.015625 -1.722656 0.890625 -1.734375 L 0.6875 -0.546875 C 0.675781 -0.492188 0.671875 -0.457031 0.671875 -0.4375 C 0.671875 -0.363281 0.691406 -0.304688 0.734375 -0.265625 C 0.773438 -0.234375 0.835938 -0.21875 0.921875 -0.21875 C 1.046875 -0.21875 1.1875 -0.273438 1.34375 -0.390625 C 1.351562 -0.390625 1.363281 -0.382812 1.375 -0.375 C 1.382812 -0.375 1.382812 -0.367188 1.375 -0.359375 C 1.226562 -0.210938 1.09375 -0.101562 0.96875 -0.03125 C 0.851562 0.03125 0.738281 0.0625 0.625 0.0625 C 0.351562 0.0625 0.21875 -0.0546875 0.21875 -0.296875 C 0.21875 -0.347656 0.222656 -0.40625 0.234375 -0.46875 L 0.4375 -1.515625 C 0.445312 -1.578125 0.453125 -1.625 0.453125 -1.65625 C 0.453125 -1.707031 0.4375 -1.738281 0.40625 -1.75 C 0.382812 -1.769531 0.335938 -1.78125 0.265625 -1.78125 C 0.253906 -1.78125 0.25 -1.789062 0.25 -1.8125 C 0.25 -1.84375 0.253906 -1.859375 0.265625 -1.859375 C 0.523438 -1.859375 0.734375 -2.003906 0.890625 -2.296875 C 0.898438 -2.304688 0.910156 -2.3125 0.921875 -2.3125 C 0.941406 -2.3125 0.957031 -2.304688 0.96875 -2.296875 C 0.988281 -2.296875 0.992188 -2.289062 0.984375 -2.28125 L 0.921875 -1.875 C 1.003906 -1.882812 1.078125 -1.890625 1.140625 -1.890625 C 1.210938 -1.890625 1.273438 -1.894531 1.328125 -1.90625 C 1.410156 -1.914062 1.472656 -1.921875 1.515625 -1.921875 Z M 1.515625 -1.921875 "
           id="path60" />
      </g>
    </g>
  </g>
  <g
     fill="#000080"
     fill-opacity="1"
     id="g66">
    <g
       transform="translate(35.092473, 63.211191)"
       id="g65">
      <g
         id="g64">
        <path
           d="M 0.78125 0.0625 C 0.5625 0.0625 0.394531 -0.00390625 0.28125 -0.140625 C 0.164062 -0.285156 0.109375 -0.46875 0.109375 -0.6875 C 0.109375 -0.789062 0.117188 -0.878906 0.140625 -0.953125 C 0.171875 -1.148438 0.238281 -1.328125 0.34375 -1.484375 C 0.457031 -1.640625 0.585938 -1.757812 0.734375 -1.84375 C 0.890625 -1.9375 1.054688 -1.984375 1.234375 -1.984375 C 1.453125 -1.984375 1.617188 -1.914062 1.734375 -1.78125 C 1.859375 -1.644531 1.921875 -1.460938 1.921875 -1.234375 C 1.921875 -1.148438 1.910156 -1.054688 1.890625 -0.953125 C 1.847656 -0.734375 1.769531 -0.546875 1.65625 -0.390625 C 1.539062 -0.242188 1.40625 -0.128906 1.25 -0.046875 C 1.101562 0.0234375 0.945312 0.0625 0.78125 0.0625 Z M 0.953125 -0.046875 C 1.054688 -0.046875 1.144531 -0.109375 1.21875 -0.234375 C 1.300781 -0.359375 1.363281 -0.523438 1.40625 -0.734375 C 1.425781 -0.867188 1.4375 -1.003906 1.4375 -1.140625 C 1.4375 -1.347656 1.398438 -1.519531 1.328125 -1.65625 C 1.265625 -1.789062 1.179688 -1.859375 1.078125 -1.859375 C 0.972656 -1.859375 0.878906 -1.800781 0.796875 -1.6875 C 0.722656 -1.570312 0.664062 -1.398438 0.625 -1.171875 C 0.601562 -1.046875 0.59375 -0.914062 0.59375 -0.78125 C 0.59375 -0.5625 0.625 -0.382812 0.6875 -0.25 C 0.75 -0.113281 0.835938 -0.046875 0.953125 -0.046875 Z M 0.953125 -0.046875 "
           id="path63" />
      </g>
    </g>
  </g>
  <g
     fill="#000080"
     fill-opacity="1"
     id="g69">
    <g
       transform="translate(38.60868, 63.211191)"
       id="g68">
      <g
         id="g67">
        <path
           d="M 1.46875 -1.96875 C 1.5625 -1.96875 1.644531 -1.9375 1.71875 -1.875 C 1.800781 -1.8125 1.832031 -1.738281 1.8125 -1.65625 C 1.8125 -1.601562 1.789062 -1.554688 1.75 -1.515625 C 1.707031 -1.472656 1.65625 -1.453125 1.59375 -1.453125 C 1.539062 -1.453125 1.476562 -1.476562 1.40625 -1.53125 C 1.382812 -1.550781 1.359375 -1.566406 1.328125 -1.578125 C 1.304688 -1.585938 1.285156 -1.59375 1.265625 -1.59375 C 1.210938 -1.59375 1.144531 -1.503906 1.0625 -1.328125 C 0.976562 -1.160156 0.894531 -0.953125 0.8125 -0.703125 C 0.738281 -0.460938 0.6875 -0.25 0.65625 -0.0625 C 0.65625 -0.03125 0.628906 -0.00390625 0.578125 0.015625 C 0.535156 0.0351562 0.46875 0.046875 0.375 0.046875 C 0.269531 0.046875 0.21875 0.03125 0.21875 0 C 0.21875 -0.0195312 0.226562 -0.0664062 0.25 -0.140625 C 0.269531 -0.222656 0.285156 -0.300781 0.296875 -0.375 L 0.5 -1.46875 C 0.507812 -1.53125 0.515625 -1.566406 0.515625 -1.578125 C 0.515625 -1.671875 0.484375 -1.71875 0.421875 -1.71875 C 0.359375 -1.71875 0.265625 -1.648438 0.140625 -1.515625 C 0.140625 -1.515625 0.132812 -1.515625 0.125 -1.515625 C 0.113281 -1.515625 0.101562 -1.519531 0.09375 -1.53125 C 0.0820312 -1.539062 0.0820312 -1.550781 0.09375 -1.5625 C 0.21875 -1.707031 0.328125 -1.8125 0.421875 -1.875 C 0.515625 -1.9375 0.609375 -1.96875 0.703125 -1.96875 C 0.785156 -1.96875 0.84375 -1.941406 0.875 -1.890625 C 0.914062 -1.847656 0.9375 -1.785156 0.9375 -1.703125 C 0.9375 -1.648438 0.929688 -1.59375 0.921875 -1.53125 L 0.828125 -0.984375 C 1.023438 -1.640625 1.238281 -1.96875 1.46875 -1.96875 Z M 1.46875 -1.96875 "
           id="path66" />
      </g>
    </g>
  </g>
  <g
     fill="#000080"
     fill-opacity="1"
     id="g72">
    <g
       transform="translate(41.866631, 63.211191)"
       id="g71">
      <g
         id="g70">
        <path
           d="M 0.859375 -2.484375 C 0.773438 -2.484375 0.707031 -2.507812 0.65625 -2.5625 C 0.601562 -2.613281 0.578125 -2.679688 0.578125 -2.765625 C 0.578125 -2.847656 0.601562 -2.910156 0.65625 -2.953125 C 0.707031 -3.003906 0.773438 -3.03125 0.859375 -3.03125 C 0.941406 -3.03125 1.007812 -3.003906 1.0625 -2.953125 C 1.113281 -2.910156 1.140625 -2.847656 1.140625 -2.765625 C 1.140625 -2.671875 1.113281 -2.597656 1.0625 -2.546875 C 1.007812 -2.503906 0.941406 -2.484375 0.859375 -2.484375 Z M 0.53125 0.046875 C 0.363281 0.046875 0.28125 -0.046875 0.28125 -0.234375 C 0.28125 -0.285156 0.289062 -0.351562 0.3125 -0.4375 L 0.515625 -1.46875 C 0.523438 -1.519531 0.53125 -1.5625 0.53125 -1.59375 C 0.53125 -1.632812 0.519531 -1.664062 0.5 -1.6875 C 0.488281 -1.707031 0.46875 -1.71875 0.4375 -1.71875 C 0.375 -1.71875 0.28125 -1.648438 0.15625 -1.515625 C 0.15625 -1.515625 0.148438 -1.515625 0.140625 -1.515625 C 0.128906 -1.515625 0.117188 -1.519531 0.109375 -1.53125 C 0.109375 -1.539062 0.109375 -1.550781 0.109375 -1.5625 C 0.234375 -1.707031 0.34375 -1.8125 0.4375 -1.875 C 0.53125 -1.9375 0.625 -1.96875 0.71875 -1.96875 C 0.875 -1.96875 0.953125 -1.878906 0.953125 -1.703125 C 0.953125 -1.648438 0.945312 -1.59375 0.9375 -1.53125 L 0.734375 -0.4375 C 0.722656 -0.40625 0.71875 -0.367188 0.71875 -0.328125 C 0.71875 -0.242188 0.742188 -0.203125 0.796875 -0.203125 C 0.828125 -0.203125 0.863281 -0.21875 0.90625 -0.25 C 0.945312 -0.28125 1 -0.320312 1.0625 -0.375 C 1.0625 -0.382812 1.066406 -0.390625 1.078125 -0.390625 C 1.085938 -0.390625 1.09375 -0.382812 1.09375 -0.375 C 1.101562 -0.363281 1.101562 -0.351562 1.09375 -0.34375 C 0.976562 -0.207031 0.878906 -0.109375 0.796875 -0.046875 C 0.710938 0.015625 0.625 0.046875 0.53125 0.046875 Z M 0.53125 0.046875 "
           id="path69" />
      </g>
    </g>
  </g>
  <g
     fill="#000080"
     fill-opacity="1"
     id="g75">
    <g
       transform="translate(44.583243, 63.211191)"
       id="g74">
      <g
         id="g73">
        <path
           d="M 2.0625 -0.375 C 2.0625 -0.382812 2.066406 -0.390625 2.078125 -0.390625 C 2.085938 -0.390625 2.09375 -0.382812 2.09375 -0.375 C 2.101562 -0.363281 2.109375 -0.351562 2.109375 -0.34375 C 1.890625 -0.0820312 1.703125 0.046875 1.546875 0.046875 C 1.460938 0.046875 1.398438 0.0234375 1.359375 -0.015625 C 1.316406 -0.0664062 1.296875 -0.144531 1.296875 -0.25 C 1.296875 -0.3125 1.300781 -0.375 1.3125 -0.4375 L 1.375 -0.78125 C 1.25 -0.507812 1.097656 -0.300781 0.921875 -0.15625 C 0.742188 -0.0078125 0.570312 0.0625 0.40625 0.0625 C 0.3125 0.0625 0.234375 0.03125 0.171875 -0.03125 C 0.109375 -0.09375 0.078125 -0.1875 0.078125 -0.3125 C 0.078125 -0.53125 0.148438 -0.769531 0.296875 -1.03125 C 0.441406 -1.300781 0.625 -1.523438 0.84375 -1.703125 C 1.0625 -1.890625 1.265625 -1.984375 1.453125 -1.984375 C 1.515625 -1.984375 1.578125 -1.972656 1.640625 -1.953125 C 1.710938 -1.929688 1.769531 -1.898438 1.8125 -1.859375 C 1.875 -1.898438 1.925781 -1.953125 1.96875 -2.015625 C 1.976562 -2.023438 1.984375 -2.03125 1.984375 -2.03125 C 1.992188 -2.03125 2.003906 -2.023438 2.015625 -2.015625 C 2.023438 -2.015625 2.03125 -2.007812 2.03125 -2 L 1.734375 -0.4375 C 1.722656 -0.394531 1.71875 -0.359375 1.71875 -0.328125 C 1.71875 -0.242188 1.742188 -0.203125 1.796875 -0.203125 C 1.859375 -0.203125 1.945312 -0.257812 2.0625 -0.375 Z M 0.734375 -0.296875 C 0.828125 -0.296875 0.925781 -0.347656 1.03125 -0.453125 C 1.132812 -0.554688 1.222656 -0.679688 1.296875 -0.828125 C 1.378906 -0.984375 1.429688 -1.125 1.453125 -1.25 C 1.460938 -1.3125 1.46875 -1.363281 1.46875 -1.40625 C 1.46875 -1.507812 1.441406 -1.585938 1.390625 -1.640625 C 1.347656 -1.703125 1.285156 -1.734375 1.203125 -1.734375 C 1.046875 -1.734375 0.910156 -1.648438 0.796875 -1.484375 C 0.679688 -1.328125 0.597656 -1.117188 0.546875 -0.859375 C 0.535156 -0.753906 0.53125 -0.671875 0.53125 -0.609375 C 0.53125 -0.503906 0.546875 -0.425781 0.578125 -0.375 C 0.617188 -0.320312 0.671875 -0.296875 0.734375 -0.296875 Z M 0.734375 -0.296875 "
           id="path72" />
      </g>
    </g>
  </g>
</svg>
